<?xml version="1.0" encoding="UTF-8"?>
<svg version="1.1" xmlns="http://www.w3.org/2000/svg" width="500" height="500">
<path d="M0 0 C165 0 330 0 500 0 C500 165 500 330 500 500 C335 500 170 500 0 500 C0 335 0 170 0 0 Z " fill="#FEFEFE" transform="translate(0,0)"/>
<path d="M0 0 C20.46286733 18.9938167 34.16262125 43.64494414 42.3125 70.125 C42.76302734 71.55392578 42.76302734 71.55392578 43.22265625 73.01171875 C51.00346563 100.42049953 49.17410338 133.60170254 39.3125 160.125 C38.93222656 161.21425781 38.55195313 162.30351562 38.16015625 163.42578125 C31.76686017 181.05577952 22.59985827 196.95613999 10.3125 211.125 C9.86777344 211.64352539 9.42304688 212.16205078 8.96484375 212.69628906 C1.97661981 220.78919743 -5.48986911 227.62594354 -14.10351562 233.95849609 C-15.49353888 234.98215995 -16.86553569 236.03020841 -18.234375 237.08203125 C-25.49370482 242.47780828 -33.52695272 246.30364038 -41.6875 250.125 C-42.66332031 250.5890625 -43.63914062 251.053125 -44.64453125 251.53125 C-65.77083746 260.96101758 -88.68080587 264.69659489 -111.6875 264.125 C-113.38326172 264.11726562 -113.38326172 264.11726562 -115.11328125 264.109375 C-147.51623289 263.1672331 -180.33418791 249.23727056 -204.6875 228.125 C-205.56897705 227.36896484 -205.56897705 227.36896484 -206.46826172 226.59765625 C-214.83621436 219.3522063 -221.99898513 211.62230141 -228.53710938 202.69287109 C-229.55279782 201.30858603 -230.59480196 199.94369285 -231.640625 198.58203125 C-239.53488246 187.96745535 -244.91722495 175.39387288 -249.6875 163.125 C-250.04585937 162.21363281 -250.40421875 161.30226563 -250.7734375 160.36328125 C-262.16719382 130.33687831 -261.78499474 94.44553281 -251.6875 64.125 C-251.46578125 63.44630859 -251.2440625 62.76761719 -251.015625 62.06835938 C-240.9262842 31.71234855 -221.48682301 5.88240253 -195.6875 -12.875 C-194.85089844 -13.51695313 -194.01429688 -14.15890625 -193.15234375 -14.8203125 C-185.89872183 -20.2211729 -177.83732972 -24.03504579 -169.6875 -27.875 C-168.85855225 -28.27920166 -168.02960449 -28.68340332 -167.17553711 -29.09985352 C-160.32324508 -32.3575816 -153.45544781 -34.63288676 -146.125 -36.5625 C-144.98675781 -36.86357666 -143.84851563 -37.16465332 -142.67578125 -37.47485352 C-91.52713151 -50.5470571 -38.70772029 -35.11083436 0 0 Z " fill="#FDFDFD" transform="translate(355.6875,138.875)"/>
<path d="M0 0 C5.86736531 0.90323646 9.35155079 5.13795526 13.12109375 9.48046875 C15.03386177 12.58618934 16.65854352 15.74402196 18.26953125 19.015625 C20.30478065 22.82420352 22.66804045 26.15512754 25.24609375 29.60546875 C31.64438489 38.25866953 36.51210701 46.89494588 35.93359375 57.91796875 C35.88077044 64.48566656 38.21798939 67.43463156 42.62109375 72.16796875 C45.07900134 74.95260725 45.88603272 77.69091232 46.93359375 81.23046875 C48.0744542 85.07162597 48.0744542 85.07162597 50.97265625 87.52734375 C53.0249699 88.02200126 53.0249699 88.02200126 55.0234375 88.13671875 C57.83574775 88.59758151 59.75851198 89.93554572 62.12109375 91.48046875 C62.0746875 90.50207031 62.02828125 89.52367187 61.98046875 88.515625 C61.76466297 80.67725061 61.85111776 74.30945474 66.12109375 67.48046875 C66.67796875 66.55234375 67.23484375 65.62421875 67.80859375 64.66796875 C74.95562901 57.90725972 82.99351396 57.9524698 92.328125 58.14453125 C95.62277769 58.43633365 97.44774063 58.63838215 100.12109375 60.48046875 C102.13845559 63.07421969 102.12109375 64.59064959 102.12109375 67.91796875 C101.12391804 71.47040722 100.1792711 73.2674742 97.2109375 75.48828125 C93.56779888 77.21792089 89.70640654 77.57342464 85.73046875 78.0234375 C82.96895683 78.24959798 82.96895683 78.24959798 81.12109375 80.48046875 C79.95801008 86.99914699 81.62582516 92.04224204 85.12109375 97.48046875 C86.21983907 98.9844444 87.32446018 100.48413765 88.43359375 101.98046875 C99.94547226 118.09709866 104.49373427 137.95748568 101.6875 157.5 C99.15843885 167.47486849 93.0263773 174.5749481 84.35546875 179.8125 C81.94772263 181.33971367 81.94772263 181.33971367 80.91796875 184.00390625 C79.12109375 186.48046875 79.12109375 186.48046875 76.06738281 187.39526367 C63.5387071 188.60066235 51.05269881 188.81942931 38.46923828 188.79614258 C34.83596977 188.79293777 31.20348352 188.81668504 27.5703125 188.84179688 C25.24869893 188.84406615 22.9270832 188.8447751 20.60546875 188.84375 C19.5252948 188.85295975 18.44512085 188.86216949 17.33221436 188.87165833 C11.99842366 188.83862853 8.54568554 188.75321741 4.12109375 185.48046875 C0.62823538 185.40747059 0.62823538 185.40747059 -3.00390625 185.91796875 C-9.56744558 186.6881092 -9.56744558 186.6881092 -12.87890625 184.48046875 C-13.37890625 181.66796875 -13.37890625 181.66796875 -12.87890625 178.48046875 C-10.50390625 175.60546875 -10.50390625 175.60546875 -7.87890625 173.48046875 C-7.21890625 173.48046875 -6.55890625 173.48046875 -5.87890625 173.48046875 C-5.80384913 169.53361884 -5.7498841 165.58705448 -5.71411133 161.63964844 C-5.69189146 159.6489397 -5.6537403 157.65842907 -5.61523438 155.66796875 C-5.53549371 145.14220126 -7.02362743 137.16303972 -12.25390625 127.98046875 C-12.86363281 126.88347656 -13.47335937 125.78648437 -14.1015625 124.65625 C-14.68808594 123.60824219 -15.27460938 122.56023437 -15.87890625 121.48046875 C-20.3021116 113.29234188 -23.58687736 106.03807875 -22.87890625 96.48046875 C-22.54890625 95.55234375 -22.21890625 94.62421875 -21.87890625 93.66796875 C-20.49355277 89.25215454 -20.71559903 85.07121602 -20.87890625 80.48046875 C-21.86890625 80.12984375 -22.85890625 79.77921875 -23.87890625 79.41796875 C-29.12106342 77.1759056 -33.85072874 73.41581831 -37.1015625 68.7109375 C-38.21742993 65.50912693 -38.06644576 62.60760222 -38.00390625 59.23046875 C-37.98585937 57.9671875 -37.9678125 56.70390625 -37.94921875 55.40234375 C-37.91441406 53.95601562 -37.91441406 53.95601562 -37.87890625 52.48046875 C-37.08226562 52.24457031 -36.285625 52.00867188 -35.46484375 51.765625 C-32.73450214 50.75470082 -32.73450214 50.75470082 -31.98046875 48.4140625 C-31.82320312 47.59035156 -31.6659375 46.76664063 -31.50390625 45.91796875 C-30.45605812 41.63411904 -29.03886999 39.16224572 -26.12890625 35.85546875 C-23.15100235 32.33623402 -23.15100235 32.33623402 -22.94140625 27.66796875 C-23.16957031 26.71083984 -23.16957031 26.71083984 -23.40234375 25.734375 C-24.01583835 22.83284724 -24.04521447 20.06878537 -24.06640625 17.10546875 C-24.08058594 16.08710938 -24.09476563 15.06875 -24.109375 14.01953125 C-23.87890625 11.48046875 -23.87890625 11.48046875 -21.87890625 9.48046875 C-16.05513698 9.80401149 -11.78572857 13.43494268 -7.87890625 17.48046875 C-7.76933594 16.5884375 -7.65976562 15.69640625 -7.546875 14.77734375 C-7.30904297 13.02164063 -7.30904297 13.02164063 -7.06640625 11.23046875 C-6.91558594 10.0703125 -6.76476562 8.91015625 -6.609375 7.71484375 C-5.57749786 3.14589042 -4.83958695 0.80769226 0 0 Z " fill="#FCFCFC" transform="translate(269.87890625,155.51953125)"/>
<path d="M0 0 C2.41394956 1.08134172 3.93095481 2.31209471 6 4 C7.99427359 3.81446109 7.99427359 3.81446109 10 3 C15.42427303 2.37412234 18.84851766 3.32271015 23.2890625 6.30859375 C25.8281151 8.81866173 26.36320378 11.4665038 27.22265625 14.859375 C28.11379434 17.31336331 29.00417128 18.19021133 31.0625 19.75 C35.42719152 23.09316797 35.87363538 26.26105725 36.8125 31.4375 C37.67041704 35.88794463 38.8897446 40.13366491 40.3125 44.4375 C40.70050781 45.61183594 41.08851563 46.78617187 41.48828125 47.99609375 C42.71764198 51.17134444 42.71764198 51.17134444 45.55737305 52.32055664 C48 54 48 54 48.61523438 56.6796875 C48.60814453 57.73414063 48.60105469 58.78859375 48.59375 59.875 C48.59117187 61.02484375 48.58859375 62.1746875 48.5859375 63.359375 C48.55757813 64.56078125 48.52921875 65.7621875 48.5 67 C48.50386719 68.80210937 48.50386719 68.80210937 48.5078125 70.640625 C48.40886551 79.46669646 48.40886551 79.46669646 46.73985386 81.64367104 C44.57457781 83.3316442 43.46623668 83.37686597 40.74241638 83.38095093 C39.87452484 83.3894104 39.0066333 83.39786987 38.11244202 83.40658569 C37.16324387 83.400513 36.21404572 83.39444031 35.23608398 83.38818359 C34.23424072 83.39344055 33.23239746 83.39869751 32.20019531 83.40411377 C28.88200382 83.41733953 25.56429029 83.40856704 22.24609375 83.3984375 C19.94588631 83.40045733 17.64567949 83.403368 15.34547424 83.40713501 C10.52265328 83.41156173 5.69999889 83.40511538 0.87719727 83.39111328 C-5.31619536 83.37401177 -11.50919828 83.38386675 -17.70257664 83.40183067 C-22.4525193 83.41265083 -27.20236897 83.40923045 -31.95231438 83.4014473 C-34.23656192 83.39944089 -36.52081781 83.4019199 -38.80505562 83.40888596 C-41.99209217 83.41647234 -45.17848978 83.40493594 -48.36547852 83.38818359 C-49.3167009 83.39425629 -50.26792328 83.40032898 -51.24797058 83.40658569 C-52.1130423 83.39812622 -52.97811401 83.38966675 -53.86940002 83.38095093 C-54.6232174 83.37981985 -55.37703478 83.37868877 -56.15369511 83.37752342 C-58 83 -58 83 -60 80 C-60.22705078 77.27270508 -60.22705078 77.27270508 -60.1953125 74.01953125 C-60.18886719 72.85615234 -60.18242187 71.69277344 -60.17578125 70.49414062 C-60.15902344 69.27919922 -60.14226562 68.06425781 -60.125 66.8125 C-60.11597656 65.58595703 -60.10695312 64.35941406 -60.09765625 63.09570312 C-60.07406017 60.06360705 -60.04113841 57.03190062 -60 54 C-59.03126953 53.56216187 -59.03126953 53.56216187 -58.04296875 53.11547852 C-55.84690638 52.20612996 -55.84690638 52.20612996 -55.3125 50.15234375 C-55.209375 49.42144531 -55.10625 48.69054687 -55 47.9375 C-54.38699032 44.48034632 -53.49833951 41.70655664 -51.9375 38.5625 C-50.32662876 35.19965931 -49.75185129 32.53269585 -49.5625 28.8125 C-49.2409713 23.65196438 -47.71711439 21.53579173 -44 18 C-43.34 17.67 -42.68 17.34 -42 17 C-41.5875 15.7625 -41.175 14.525 -40.75 13.25 C-38.94910757 8.10591239 -35.89598653 5.44799327 -31 3 C-27.94508848 2.86422615 -25.44019447 2.86794166 -22.5 3.75 C-19.81142371 4.31219945 -19.81142371 4.31219945 -17.5625 2.0625 C-12.63335893 -1.63113835 -5.79965759 -0.72323521 0 0 Z " fill="#060606" transform="translate(201,261)"/>
<path d="M0 0 C20.46286733 18.9938167 34.16262125 43.64494414 42.3125 70.125 C42.76302734 71.55392578 42.76302734 71.55392578 43.22265625 73.01171875 C51.00346563 100.42049953 49.17410338 133.60170254 39.3125 160.125 C38.93222656 161.21425781 38.55195313 162.30351562 38.16015625 163.42578125 C31.76686017 181.05577952 22.59985827 196.95613999 10.3125 211.125 C9.86777344 211.64352539 9.42304688 212.16205078 8.96484375 212.69628906 C1.97661981 220.78919743 -5.48986911 227.62594354 -14.10351562 233.95849609 C-15.49353888 234.98215995 -16.86553569 236.03020841 -18.234375 237.08203125 C-25.49370482 242.47780828 -33.52695272 246.30364038 -41.6875 250.125 C-42.66332031 250.5890625 -43.63914062 251.053125 -44.64453125 251.53125 C-65.77083746 260.96101758 -88.68080587 264.69659489 -111.6875 264.125 C-113.38326172 264.11726562 -113.38326172 264.11726562 -115.11328125 264.109375 C-147.51623289 263.1672331 -180.33418791 249.23727056 -204.6875 228.125 C-205.56897705 227.36896484 -205.56897705 227.36896484 -206.46826172 226.59765625 C-214.83621436 219.3522063 -221.99898513 211.62230141 -228.53710938 202.69287109 C-229.55279782 201.30858603 -230.59480196 199.94369285 -231.640625 198.58203125 C-239.53488246 187.96745535 -244.91722495 175.39387288 -249.6875 163.125 C-250.04585937 162.21363281 -250.40421875 161.30226563 -250.7734375 160.36328125 C-262.16719382 130.33687831 -261.78499474 94.44553281 -251.6875 64.125 C-251.46578125 63.44630859 -251.2440625 62.76761719 -251.015625 62.06835938 C-240.9262842 31.71234855 -221.48682301 5.88240253 -195.6875 -12.875 C-194.85089844 -13.51695313 -194.01429688 -14.15890625 -193.15234375 -14.8203125 C-185.89872183 -20.2211729 -177.83732972 -24.03504579 -169.6875 -27.875 C-168.85855225 -28.27920166 -168.02960449 -28.68340332 -167.17553711 -29.09985352 C-160.32324508 -32.3575816 -153.45544781 -34.63288676 -146.125 -36.5625 C-144.98675781 -36.86357666 -143.84851563 -37.16465332 -142.67578125 -37.47485352 C-91.52713151 -50.5470571 -38.70772029 -35.11083436 0 0 Z M-114.97558594 -37.76660156 C-155.58459121 -35.66003824 -190.90680549 -16.43125273 -218.4375 13.0625 C-237.67392814 35.14226879 -248.58156666 61.53473327 -253.6875 90.125 C-253.88859375 91.218125 -254.0896875 92.31125 -254.296875 93.4375 C-256.17328098 111.15077244 -255.34241655 128.94361092 -250.6875 146.125 C-250.47319336 146.95290039 -250.25888672 147.78080078 -250.03808594 148.63378906 C-239.81626722 187.66119881 -214.59519078 220.20690393 -179.83374023 240.65356445 C-171.73122042 245.29937452 -163.47659452 248.98672528 -154.6875 252.125 C-153.64464844 252.50398438 -152.60179687 252.88296875 -151.52734375 253.2734375 C-142.12480598 256.43535286 -132.48258642 257.79970007 -122.6875 259.125 C-121.76195312 259.2590625 -120.83640625 259.393125 -119.8828125 259.53125 C-117.47944856 259.83063097 -115.1067808 260.00403596 -112.6875 260.125 C-110.84671875 260.22167969 -110.84671875 260.22167969 -108.96875 260.3203125 C-82.08286324 261.25341824 -56.10301901 254.04207405 -32.6875 241.125 C-31.30884766 240.37089844 -31.30884766 240.37089844 -29.90234375 239.6015625 C4.42311957 219.90929987 28.39238377 186.52716614 38.69140625 148.68945312 C40.37309322 142.22442473 41.57061473 135.76746117 42.3125 129.125 C42.42335938 128.13242187 42.53421875 127.13984375 42.6484375 126.1171875 C46.26529897 88.67778367 36.60085735 49.95924867 12.875 20.3125 C11.37155872 18.56819048 9.85002577 16.83934124 8.3125 15.125 C7.88324219 14.63692871 7.45398438 14.14885742 7.01171875 13.64599609 C-10.40529795 -6.14892022 -31.62146077 -21.32223748 -56.6875 -29.875 C-57.45658691 -30.13941895 -58.22567383 -30.40383789 -59.01806641 -30.67626953 C-72.80744759 -35.29635277 -86.18936315 -37.21760899 -100.6875 -37.875 C-101.7909375 -37.93429688 -102.894375 -37.99359375 -104.03125 -38.0546875 C-107.69525074 -38.14944614 -111.31666207 -37.93994367 -114.97558594 -37.76660156 Z " fill="#101010" transform="translate(355.6875,138.875)"/>
<path d="M0 0 C2.51388117 -0.28666087 4.78074913 -0.37862623 7.29541016 -0.34057617 C8.42238564 -0.34123329 8.42238564 -0.34123329 9.5721283 -0.34190369 C12.06136858 -0.33980969 14.54993955 -0.31645062 17.0390625 -0.29296875 C18.76255933 -0.28737495 20.48606091 -0.28310383 22.20956421 -0.28010559 C26.75037763 -0.26863976 31.29090412 -0.2391578 35.831604 -0.20599365 C40.46321735 -0.1753301 45.09487696 -0.16160822 49.7265625 -0.14648438 C58.81783455 -0.11428963 67.90889343 -0.06307243 77 0 C78.96420017 4.42866581 80.40704666 8.1377826 81 13 C80.01 13.33 79.02 13.66 78 14 C77.67 15.65 77.34 17.3 77 19 C80.3 19.33 83.6 19.66 87 20 C87 25.94 87 31.88 87 38 C55.32 38 23.64 38 -9 38 C-9 32.06 -9 26.12 -9 20 C-6.36 19.34 -3.72 18.68 -1 18 C-0.67 16.68 -0.34 15.36 0 14 C-1.65 13.67 -3.3 13.34 -5 13 C-4.54803755 11.39402675 -4.08817673 9.79027492 -3.625 8.1875 C-3.36976563 7.29417969 -3.11453125 6.40085937 -2.8515625 5.48046875 C-2 3 -2 3 0 0 Z " fill="#F8F8F8" transform="translate(156,300)"/>
<path d="M0 0 C5.86736531 0.90323646 9.35155079 5.13795526 13.12109375 9.48046875 C15.03386177 12.58618934 16.65854352 15.74402196 18.26953125 19.015625 C20.30478065 22.82420352 22.66804045 26.15512754 25.24609375 29.60546875 C31.64438489 38.25866953 36.51210701 46.89494588 35.93359375 57.91796875 C35.88077044 64.48566656 38.21798939 67.43463156 42.62109375 72.16796875 C45.07900134 74.95260725 45.88603272 77.69091232 46.93359375 81.23046875 C48.0744542 85.07162597 48.0744542 85.07162597 50.97265625 87.52734375 C53.0249699 88.02200126 53.0249699 88.02200126 55.0234375 88.13671875 C57.83574775 88.59758151 59.75851198 89.93554572 62.12109375 91.48046875 C62.0746875 90.50207031 62.02828125 89.52367187 61.98046875 88.515625 C61.76466297 80.67725061 61.85111776 74.30945474 66.12109375 67.48046875 C66.67796875 66.55234375 67.23484375 65.62421875 67.80859375 64.66796875 C74.95562901 57.90725972 82.99351396 57.9524698 92.328125 58.14453125 C95.62277769 58.43633365 97.44774063 58.63838215 100.12109375 60.48046875 C102.13845559 63.07421969 102.12109375 64.59064959 102.12109375 67.91796875 C101.12391804 71.47040722 100.1792711 73.2674742 97.2109375 75.48828125 C93.56779888 77.21792089 89.70640654 77.57342464 85.73046875 78.0234375 C82.96895683 78.24959798 82.96895683 78.24959798 81.12109375 80.48046875 C79.95801008 86.99914699 81.62582516 92.04224204 85.12109375 97.48046875 C86.21983907 98.9844444 87.32446018 100.48413765 88.43359375 101.98046875 C99.94547226 118.09709866 104.49373427 137.95748568 101.6875 157.5 C99.15843885 167.47486849 93.0263773 174.5749481 84.35546875 179.8125 C81.94772263 181.33971367 81.94772263 181.33971367 80.91796875 184.00390625 C79.12109375 186.48046875 79.12109375 186.48046875 76.06738281 187.39526367 C63.5387071 188.60066235 51.05269881 188.81942931 38.46923828 188.79614258 C34.83596977 188.79293777 31.20348352 188.81668504 27.5703125 188.84179688 C25.24869893 188.84406615 22.9270832 188.8447751 20.60546875 188.84375 C19.5252948 188.85295975 18.44512085 188.86216949 17.33221436 188.87165833 C11.99842366 188.83862853 8.54568554 188.75321741 4.12109375 185.48046875 C0.62823538 185.40747059 0.62823538 185.40747059 -3.00390625 185.91796875 C-9.56744558 186.6881092 -9.56744558 186.6881092 -12.87890625 184.48046875 C-13.37890625 181.66796875 -13.37890625 181.66796875 -12.87890625 178.48046875 C-10.50390625 175.60546875 -10.50390625 175.60546875 -7.87890625 173.48046875 C-7.21890625 173.48046875 -6.55890625 173.48046875 -5.87890625 173.48046875 C-5.80384913 169.53361884 -5.7498841 165.58705448 -5.71411133 161.63964844 C-5.69189146 159.6489397 -5.6537403 157.65842907 -5.61523438 155.66796875 C-5.53549371 145.14220126 -7.02362743 137.16303972 -12.25390625 127.98046875 C-12.86363281 126.88347656 -13.47335937 125.78648437 -14.1015625 124.65625 C-14.68808594 123.60824219 -15.27460938 122.56023437 -15.87890625 121.48046875 C-20.3021116 113.29234188 -23.58687736 106.03807875 -22.87890625 96.48046875 C-22.54890625 95.55234375 -22.21890625 94.62421875 -21.87890625 93.66796875 C-20.49355277 89.25215454 -20.71559903 85.07121602 -20.87890625 80.48046875 C-21.86890625 80.12984375 -22.85890625 79.77921875 -23.87890625 79.41796875 C-28.87843982 77.29571777 -34.40829441 73.42169244 -36.87890625 68.48046875 C-37.01306097 65.80810665 -36.92209166 63.15796387 -36.87890625 60.48046875 C-35.60614342 62.38961299 -34.37191975 64.32544624 -33.19140625 66.29296875 C-28.7828956 72.36956451 -23.88640949 75.90628389 -16.87890625 78.48046875 C-16.82438911 80.5218327 -16.7858814 82.56362731 -16.75390625 84.60546875 C-16.73070312 85.74242187 -16.7075 86.879375 -16.68359375 88.05078125 C-16.88305412 91.55330543 -17.73424199 94.18728784 -18.87890625 97.48046875 C-19.47417992 108.49303164 -13.52433359 118.55980887 -7.87890625 127.53515625 C-2.40586208 137.48713066 -1.2146654 147.80094493 -1.31640625 158.98046875 C-1.28063477 160.83285156 -1.28063477 160.83285156 -1.24414062 162.72265625 C-1.26029425 172.65175389 -1.26029425 172.65175389 -4.2890625 175.82421875 C-6.87890625 177.48046875 -6.87890625 177.48046875 -8.87890625 177.48046875 C-9.37390625 180.45046875 -9.37390625 180.45046875 -9.87890625 183.48046875 C-5.45737261 183.11463572 -1.16815238 182.64134477 3.12109375 181.48046875 C5.2394312 178.66216629 5.2394312 178.66216629 6.12109375 175.48046875 C10.22109375 172.48046875 10.22109375 172.48046875 13.12109375 172.48046875 C13.21197266 171.61035156 13.21197266 171.61035156 13.3046875 170.72265625 C13.68769029 167.15189176 14.0917268 163.63905029 14.74609375 160.10546875 C15.3353836 157.3779823 15.3353836 157.3779823 14.12109375 154.48046875 C12.94421334 143.99282558 15.12904982 137.0085262 21.4921875 128.6875 C22.74609375 127.29296875 22.74609375 127.29296875 25.12109375 125.48046875 C26.44109375 125.48046875 27.76109375 125.48046875 29.12109375 125.48046875 C27.80195837 128.37120562 26.33365708 130.52486575 24.18359375 132.85546875 C19.34332103 138.46497797 17.50774199 142.95222257 17.69140625 150.390625 C18.63484329 157.17479496 21.33074299 163.79494261 25.12109375 169.48046875 C25.12109375 170.80046875 25.12109375 172.12046875 25.12109375 173.48046875 C24.56421875 173.49464844 24.00734375 173.50882813 23.43359375 173.5234375 C17.58098263 173.88922569 12.37166387 175.18357089 8.12109375 179.48046875 C8.12109375 180.80046875 8.12109375 182.12046875 8.12109375 183.48046875 C11.08995195 184.96489785 14.15676127 184.74026271 17.41796875 184.83203125 C18.5239164 184.86750816 18.5239164 184.86750816 19.65220642 184.90370178 C22.05836162 184.97765324 24.46462199 185.04270365 26.87109375 185.10546875 C27.68599274 185.1275943 28.50089172 185.14971985 29.34048462 185.17251587 C39.17117331 185.43080674 48.97952498 185.60196589 58.80859375 185.16796875 C59.64165039 185.1333252 60.47470703 185.09868164 61.33300781 185.06298828 C69.42130774 184.67373315 69.42130774 184.67373315 77.12109375 182.48046875 C78.28206822 180.52773292 78.28206822 180.52773292 79.12109375 178.48046875 C81.07421875 177.0234375 81.07421875 177.0234375 83.37109375 175.66796875 C91.06090629 170.71834623 96.09760921 164.54067763 98.12109375 155.48046875 C100.37362178 136.15996547 94.82662958 116.3251928 82.80859375 100.98046875 C82.33550781 100.39136719 81.86242187 99.80226563 81.375 99.1953125 C77.33256197 93.66686921 76.14799928 87.20250291 77.12109375 80.48046875 C79.20217483 75.93992821 79.20217483 75.93992821 82.12109375 74.48046875 C85.1336431 73.9974069 88.15227796 73.58436278 91.17578125 73.17578125 C94.21836117 72.45750641 95.80308107 71.52972634 98.12109375 69.48046875 C97.77881803 66.50981366 97.77881803 66.50981366 97.12109375 63.48046875 C92.04438484 60.9421143 83.91625638 61.79533866 78.5234375 63.1171875 C76.688019 63.8204787 74.89879761 64.6419292 73.12109375 65.48046875 C71.63609375 65.97546875 71.63609375 65.97546875 70.12109375 66.48046875 C68.99160154 69.28423227 68.99160154 69.28423227 68.12109375 72.48046875 C67.60095703 73.51494141 67.60095703 73.51494141 67.0703125 74.5703125 C65.68655066 78.81270991 65.9102124 82.86347276 65.99609375 87.29296875 C66.00511719 88.17662109 66.01414062 89.06027344 66.0234375 89.97070312 C66.04689738 92.14074234 66.0827651 94.31064122 66.12109375 96.48046875 C66.74580566 96.77074951 67.37051758 97.06103027 68.01416016 97.36010742 C75.70568409 101.45007305 80.32147136 113.7189796 83.12109375 121.48046875 C87.08846271 135.2568051 90.85774633 154.0071636 84.12109375 167.48046875 C83.13109375 167.48046875 82.14109375 167.48046875 81.12109375 167.48046875 C81.99551235 159.10837573 81.99551235 159.10837573 82.68359375 155.66796875 C85.05567471 138.38566461 80.12172611 118.80542444 69.89453125 104.546875 C64.49694786 98.25762034 58.72952651 92.61236451 50.55859375 90.60546875 C46.74757255 89.35822545 45.91096782 88.97072319 44.12109375 85.48046875 C43.69703158 84.06599824 43.28127888 82.64902566 42.87109375 81.23046875 C41.44463663 76.60020421 39.09341464 73.74239792 35.7421875 70.3046875 C31.95420512 66.04206636 31.96132342 62.75123039 31.93359375 57.10546875 C31.4545168 44.62103609 24.99028846 35.26364884 17.75317383 25.53881836 C15.1055681 21.9666519 12.90033779 18.39123923 10.87109375 14.41796875 C8.18072184 9.25762263 5.45840162 5.62217934 -0.25390625 3.66796875 C-0.79015625 3.60609375 -1.32640625 3.54421875 -1.87890625 3.48046875 C-3.00147596 9.08388396 -3.20611942 14.66229885 -3.44140625 20.35546875 C-3.50618164 21.81726563 -3.50618164 21.81726563 -3.57226562 23.30859375 C-3.67772899 25.69909677 -3.779848 28.08969319 -3.87890625 30.48046875 C-4.53890625 30.48046875 -5.19890625 30.48046875 -5.87890625 30.48046875 C-5.87890625 28.83046875 -5.87890625 27.18046875 -5.87890625 25.48046875 C-17.23929687 30.86286741 -24.13485931 36.36395446 -28.87890625 48.29296875 C-30.69165181 52.68657239 -32.70466194 54.29847741 -36.87890625 56.48046875 C-36.54890625 54.83046875 -36.21890625 53.18046875 -35.87890625 51.48046875 C-34.39390625 50.98546875 -34.39390625 50.98546875 -32.87890625 50.48046875 C-32.10419456 48.44582052 -32.10419456 48.44582052 -31.62890625 45.98046875 C-30.51077031 41.71453705 -29.03326245 39.16320776 -26.12890625 35.85546875 C-23.15100235 32.33623402 -23.15100235 32.33623402 -22.94140625 27.66796875 C-23.16957031 26.71083984 -23.16957031 26.71083984 -23.40234375 25.734375 C-24.01583835 22.83284724 -24.04521447 20.06878537 -24.06640625 17.10546875 C-24.08058594 16.08710938 -24.09476563 15.06875 -24.109375 14.01953125 C-23.87890625 11.48046875 -23.87890625 11.48046875 -21.87890625 9.48046875 C-16.05513698 9.80401149 -11.78572857 13.43494268 -7.87890625 17.48046875 C-7.76933594 16.5884375 -7.65976562 15.69640625 -7.546875 14.77734375 C-7.30904297 13.02164063 -7.30904297 13.02164063 -7.06640625 11.23046875 C-6.91558594 10.0703125 -6.76476562 8.91015625 -6.609375 7.71484375 C-5.57749786 3.14589042 -4.83958695 0.80769226 0 0 Z " fill="#131313" transform="translate(269.87890625,155.51953125)"/>
<path d="M0 0 C4.22838363 2.60208223 5.51629538 5.46652395 7.25 10 C7.91 10 8.57 10 9.25 10 C9.229375 9.030625 9.20875 8.06125 9.1875 7.0625 C9.25 4 9.25 4 10.25 3 C17.41142558 2.4129979 17.41142558 2.4129979 20.75 4.75 C22.25 7 22.25 7 22.25 11 C20.28277992 12.38123963 18.28131672 13.71488126 16.25 15 C15.755 16.485 15.755 16.485 15.25 18 C18.00641416 17.50243908 18.00641416 17.50243908 20.25 16 C23.5625 15.625 23.5625 15.625 27.25 16 C29.6875 18.0625 29.6875 18.0625 31.25 21 C31.25 23.31 31.25 25.62 31.25 28 C6.17 28 -18.91 28 -44.75 28 C-44.75 21 -44.75 21 -43.1875 18.0625 C-40.75 16 -40.75 16 -37.375 15.5 C-33.58158484 16.02322968 -31.03684393 17.0759938 -27.75 19 C-28.31076801 16.50995496 -28.31076801 16.50995496 -29.75 14 C-32.77982306 12.62810173 -32.77982306 12.62810173 -35.75 12 C-36.09982212 8.85160094 -35.99633224 7.37976221 -34.25 4.6875 C-30.62174359 2.23842692 -28.07159775 2.71189348 -23.75 3 C-22.75 6 -22.75 6 -22.75 10 C-22.09 10 -21.43 10 -20.75 10 C-19.52848921 8.30606652 -19.52848921 8.30606652 -18.375 6.1875 C-13.59224371 -1.64512987 -8.66025755 -2.30940201 0 0 Z " fill="#FCFCFC" transform="translate(200.75,266)"/>
<path d="M0 0 C5.86736531 0.90323646 9.35155079 5.13795526 13.12109375 9.48046875 C15.03386177 12.58618934 16.65854352 15.74402196 18.26953125 19.015625 C20.30478065 22.82420352 22.66804045 26.15512754 25.24609375 29.60546875 C31.64438489 38.25866953 36.51210701 46.89494588 35.93359375 57.91796875 C35.88077044 64.48566656 38.21798939 67.43463156 42.62109375 72.16796875 C45.07900134 74.95260725 45.88603272 77.69091232 46.93359375 81.23046875 C48.0744542 85.07162597 48.0744542 85.07162597 50.97265625 87.52734375 C53.0249699 88.02200126 53.0249699 88.02200126 55.0234375 88.13671875 C57.83574775 88.59758151 59.75851198 89.93554572 62.12109375 91.48046875 C62.0746875 90.50207031 62.02828125 89.52367187 61.98046875 88.515625 C61.76466297 80.67725061 61.85111776 74.30945474 66.12109375 67.48046875 C66.67796875 66.55234375 67.23484375 65.62421875 67.80859375 64.66796875 C74.95562901 57.90725972 82.99351396 57.9524698 92.328125 58.14453125 C95.62277769 58.43633365 97.44774063 58.63838215 100.12109375 60.48046875 C102.13845559 63.07421969 102.12109375 64.59064959 102.12109375 67.91796875 C101.10216618 71.54789821 100.05515428 73.28866762 97.01953125 75.546875 C93.56276711 77.24680634 89.92373316 77.38751534 86.12109375 77.48046875 C86.61609375 75.99546875 86.61609375 75.99546875 87.12109375 74.48046875 C89.1171875 73.6015625 89.1171875 73.6015625 91.55859375 72.91796875 C95.21967603 71.89539616 95.21967603 71.89539616 98.12109375 69.48046875 C97.95667098 66.41055194 97.95667098 66.41055194 97.12109375 63.48046875 C92.04438484 60.9421143 83.91625638 61.79533866 78.5234375 63.1171875 C76.688019 63.8204787 74.89879761 64.6419292 73.12109375 65.48046875 C71.63609375 65.97546875 71.63609375 65.97546875 70.12109375 66.48046875 C68.99160154 69.28423227 68.99160154 69.28423227 68.12109375 72.48046875 C67.60095703 73.51494141 67.60095703 73.51494141 67.0703125 74.5703125 C65.68655066 78.81270991 65.9102124 82.86347276 65.99609375 87.29296875 C66.00511719 88.17662109 66.01414062 89.06027344 66.0234375 89.97070312 C66.04689738 92.14074234 66.0827651 94.31064122 66.12109375 96.48046875 C66.74580566 96.77074951 67.37051758 97.06103027 68.01416016 97.36010742 C75.70568409 101.45007305 80.32147136 113.7189796 83.12109375 121.48046875 C87.08846271 135.2568051 90.85774633 154.0071636 84.12109375 167.48046875 C83.13109375 167.48046875 82.14109375 167.48046875 81.12109375 167.48046875 C81.99551235 159.10837573 81.99551235 159.10837573 82.68359375 155.66796875 C85.05567471 138.38566461 80.12172611 118.80542444 69.89453125 104.546875 C64.49694786 98.25762034 58.72952651 92.61236451 50.55859375 90.60546875 C46.74757255 89.35822545 45.91096782 88.97072319 44.12109375 85.48046875 C43.69703158 84.06599824 43.28127888 82.64902566 42.87109375 81.23046875 C41.44463663 76.60020421 39.09341464 73.74239792 35.7421875 70.3046875 C31.95420512 66.04206636 31.96132342 62.75123039 31.93359375 57.10546875 C31.4545168 44.62103609 24.99028846 35.26364884 17.75317383 25.53881836 C15.1055681 21.9666519 12.90033779 18.39123923 10.87109375 14.41796875 C8.18072184 9.25762263 5.45840162 5.62217934 -0.25390625 3.66796875 C-0.79015625 3.60609375 -1.32640625 3.54421875 -1.87890625 3.48046875 C-3.00147596 9.08388396 -3.20611942 14.66229885 -3.44140625 20.35546875 C-3.50618164 21.81726563 -3.50618164 21.81726563 -3.57226562 23.30859375 C-3.67772899 25.69909677 -3.779848 28.08969319 -3.87890625 30.48046875 C-4.53890625 30.48046875 -5.19890625 30.48046875 -5.87890625 30.48046875 C-5.87890625 28.83046875 -5.87890625 27.18046875 -5.87890625 25.48046875 C-17.23929687 30.86286741 -24.13485931 36.36395446 -28.87890625 48.29296875 C-30.69165181 52.68657239 -32.70466194 54.29847741 -36.87890625 56.48046875 C-36.54890625 54.83046875 -36.21890625 53.18046875 -35.87890625 51.48046875 C-34.39390625 50.98546875 -34.39390625 50.98546875 -32.87890625 50.48046875 C-32.10419456 48.44582052 -32.10419456 48.44582052 -31.62890625 45.98046875 C-30.51077031 41.71453705 -29.03326245 39.16320776 -26.12890625 35.85546875 C-23.15100235 32.33623402 -23.15100235 32.33623402 -22.94140625 27.66796875 C-23.16957031 26.71083984 -23.16957031 26.71083984 -23.40234375 25.734375 C-24.01583835 22.83284724 -24.04521447 20.06878537 -24.06640625 17.10546875 C-24.08058594 16.08710938 -24.09476563 15.06875 -24.109375 14.01953125 C-23.87890625 11.48046875 -23.87890625 11.48046875 -21.87890625 9.48046875 C-16.05513698 9.80401149 -11.78572857 13.43494268 -7.87890625 17.48046875 C-7.76933594 16.5884375 -7.65976562 15.69640625 -7.546875 14.77734375 C-7.30904297 13.02164063 -7.30904297 13.02164063 -7.06640625 11.23046875 C-6.91558594 10.0703125 -6.76476562 8.91015625 -6.609375 7.71484375 C-5.57749786 3.14589042 -4.83958695 0.80769226 0 0 Z " fill="#171717" transform="translate(269.87890625,155.51953125)"/>
<path d="M0 0 C5.86736531 0.90323646 9.35155079 5.13795526 13.12109375 9.48046875 C15.03154531 12.58242815 16.65513389 15.73701929 18.265625 19.00390625 C20.3266665 22.86564716 22.71276657 26.28035571 25.30859375 29.79296875 C28.7692075 34.51715549 31.98820843 38.9959065 34.12109375 44.48046875 C33.703125 46.69140625 33.703125 46.69140625 33.12109375 48.48046875 C32.46109375 48.48046875 31.80109375 48.48046875 31.12109375 48.48046875 C30.73179687 47.63226563 30.3425 46.7840625 29.94140625 45.91015625 C26.44731278 38.58383123 22.60532502 32.04914468 17.75341797 25.54272461 C15.10884683 21.96724421 12.9008299 18.39220278 10.87109375 14.41796875 C8.18072184 9.25762263 5.45840162 5.62217934 -0.25390625 3.66796875 C-0.79015625 3.60609375 -1.32640625 3.54421875 -1.87890625 3.48046875 C-3.00147596 9.08388396 -3.20611942 14.66229885 -3.44140625 20.35546875 C-3.50618164 21.81726563 -3.50618164 21.81726563 -3.57226562 23.30859375 C-3.67772899 25.69909677 -3.779848 28.08969319 -3.87890625 30.48046875 C-4.53890625 30.48046875 -5.19890625 30.48046875 -5.87890625 30.48046875 C-5.87890625 28.83046875 -5.87890625 27.18046875 -5.87890625 25.48046875 C-17.23929687 30.86286741 -24.13485931 36.36395446 -28.87890625 48.29296875 C-30.69165181 52.68657239 -32.70466194 54.29847741 -36.87890625 56.48046875 C-36.54890625 54.83046875 -36.21890625 53.18046875 -35.87890625 51.48046875 C-34.39390625 50.98546875 -34.39390625 50.98546875 -32.87890625 50.48046875 C-32.10419456 48.44582052 -32.10419456 48.44582052 -31.62890625 45.98046875 C-30.51077031 41.71453705 -29.03326245 39.16320776 -26.12890625 35.85546875 C-23.15100235 32.33623402 -23.15100235 32.33623402 -22.94140625 27.66796875 C-23.16957031 26.71083984 -23.16957031 26.71083984 -23.40234375 25.734375 C-24.01583835 22.83284724 -24.04521447 20.06878537 -24.06640625 17.10546875 C-24.08058594 16.08710938 -24.09476563 15.06875 -24.109375 14.01953125 C-23.87890625 11.48046875 -23.87890625 11.48046875 -21.87890625 9.48046875 C-16.05513698 9.80401149 -11.78572857 13.43494268 -7.87890625 17.48046875 C-7.76933594 16.5884375 -7.65976562 15.69640625 -7.546875 14.77734375 C-7.30904297 13.02164063 -7.30904297 13.02164063 -7.06640625 11.23046875 C-6.91558594 10.0703125 -6.76476562 8.91015625 -6.609375 7.71484375 C-5.57749786 3.14589042 -4.83958695 0.80769226 0 0 Z " fill="#111111" transform="translate(269.87890625,155.51953125)"/>
<path d="M0 0 C2.625 0.3125 2.625 0.3125 4.4375 2.3125 C4.829375 2.9725 5.22125 3.6325 5.625 4.3125 C6.016875 3.6525 6.40875 2.9925 6.8125 2.3125 C8.625 0.3125 8.625 0.3125 11.25 0 C13.625 0.3125 13.625 0.3125 14.625 1.3125 C14.66592937 3.64547433 14.66741723 5.97955225 14.625 8.3125 C15.285 7.9825 15.945 7.6525 16.625 7.3125 C18.62460012 7.272508 20.62547242 7.26903201 22.625 7.3125 C23.9510274 12.73715753 23.9510274 12.73715753 22.5625 15.1875 C19.86599753 16.75321111 17.68369541 16.51641303 14.625 16.3125 C14.66625 17.405625 14.7075 18.49875 14.75 19.625 C14.625 23.3125 14.625 23.3125 12.625 26.3125 C9.65625 26.67578125 9.65625 26.67578125 6.125 26.625 C4.37703125 26.61919922 4.37703125 26.61919922 2.59375 26.61328125 C-0.375 26.3125 -0.375 26.3125 -2.375 24.3125 C-2.60546875 22.4375 -2.60546875 22.4375 -2.5625 20.3125 C-2.55605469 19.61125 -2.54960937 18.91 -2.54296875 18.1875 C-2.375 16.3125 -2.375 16.3125 -1.375 14.3125 C-2.035 14.3125 -2.695 14.3125 -3.375 14.3125 C-3.375 14.9725 -3.375 15.6325 -3.375 16.3125 C-6.1875 16.5625 -6.1875 16.5625 -9.375 16.3125 C-11.3125 14.5625 -11.3125 14.5625 -12.375 12.3125 C-12.12703633 10.14281791 -11.93266393 8.87016393 -10.375 7.3125 C-8.70888095 7.269779 -7.04117115 7.27186168 -5.375 7.3125 C-4.715 7.3125 -4.055 7.3125 -3.375 7.3125 C-3.395625 6.343125 -3.41625 5.37375 -3.4375 4.375 C-3.3572294 0.44174071 -3.3572294 0.44174071 0 0 Z " fill="#E6E6E6" transform="translate(188.375,306.6875)"/>
<path d="M0 0 C-1.31913538 2.89073687 -2.78743667 5.044397 -4.9375 7.375 C-9.77777272 12.98450922 -11.61335176 17.47175382 -11.4296875 24.91015625 C-10.48625046 31.69432621 -7.79035076 38.31447386 -4 44 C-4 45.32 -4 46.64 -4 48 C-4.58007812 48.04898438 -5.16015625 48.09796875 -5.7578125 48.1484375 C-10.43923092 48.59649405 -14.57485459 49.298021 -19 51 C-18.67 49.68 -18.34 48.36 -18 47 C-17.34 47 -16.68 47 -16 47 C-15.93941406 46.41992188 -15.87882812 45.83984375 -15.81640625 45.2421875 C-15.43340346 41.67142301 -15.02936695 38.15858154 -14.375 34.625 C-13.78571015 31.89751355 -13.78571015 31.89751355 -15 29 C-16.17688041 18.51235683 -13.99204393 11.52805745 -7.62890625 3.20703125 C-4.95483319 0.23306215 -4.17000982 0 0 0 Z " fill="#101010" transform="translate(299,281)"/>
<path d="M0 0 C3 2.125 3 2.125 5 5 C5.57991403 9.14224306 5.34549674 10.48175489 3 14 C0.03125 14.36328125 0.03125 14.36328125 -3.5 14.3125 C-5.24796875 14.30669922 -5.24796875 14.30669922 -7.03125 14.30078125 C-10 14 -10 14 -12 12 C-12.66666667 5.11111111 -12.66666667 5.11111111 -10.5 1.5 C-7.01402996 -0.59158203 -3.89784294 -0.8876276 0 0 Z " fill="#080808" transform="translate(198,319)"/>
<path d="M0 0 C1.60488281 0.00676758 1.60488281 0.00676758 3.2421875 0.01367188 C5.86984986 0.02540251 8.49739538 0.04181772 11.125 0.0625 C11.125 1.0525 11.125 2.0425 11.125 3.0625 C10.19772095 3.06866333 10.19772095 3.06866333 9.25170898 3.07495117 C-3.81916631 3.22658546 -14.70276379 4.23281331 -26.875 9.0625 C-27.535 9.0625 -28.195 9.0625 -28.875 9.0625 C-28.875 8.0725 -28.875 7.0825 -28.875 6.0625 C-27.17105107 5.24084491 -25.46160102 4.43059355 -23.75 3.625 C-22.79867187 3.17253906 -21.84734375 2.72007812 -20.8671875 2.25390625 C-14.06979516 -0.45262725 -7.20539362 -0.05767864 0 0 Z " fill="#202020" transform="translate(270.875,205.9375)"/>
<path d="M0 0 C4.8665386 0.41713188 6.79230533 2.45465326 10 6 C10.99527195 7.0047058 11.99420305 8.00583076 13 9 C11.56705502 9.84114171 10.12845595 10.67265687 8.6875 11.5 C7.88699219 11.9640625 7.08648437 12.428125 6.26171875 12.90625 C4 14 4 14 1 14 C0.06380187 10.84493858 -0.1057123 8.03413498 -0.0625 4.75 C-0.05347656 3.85796875 -0.04445312 2.9659375 -0.03515625 2.046875 C-0.02355469 1.37140625 -0.01195312 0.6959375 0 0 Z " fill="#F7F7F7" transform="translate(249,169)"/>
<path d="M0 0 C4.63753758 6.95630637 1.80277438 17.5517494 0.53515625 25.3828125 C0 28 0 28 -1 30 C-1.99 30 -2.98 30 -4 30 C-3.855625 28.71996094 -3.71125 27.43992187 -3.5625 26.12109375 C-3.18862996 22.76087095 -2.83477309 19.39949292 -2.5 16.03515625 C-2.4175 15.21595703 -2.335 14.39675781 -2.25 13.55273438 C-2.08061541 11.86550502 -1.91403418 10.1779923 -1.75 8.49023438 C-1.6675 7.68005859 -1.585 6.86988281 -1.5 6.03515625 C-1.39171875 4.94279663 -1.39171875 4.94279663 -1.28125 3.82836914 C-1 2 -1 2 0 0 Z " fill="#161616" transform="translate(355,293)"/>
<path d="M0 0 C-1.31913538 2.89073687 -2.78743667 5.044397 -4.9375 7.375 C-10.02828902 13.23561565 -11.5093662 18.38671685 -12 26 C-12.33 26 -12.66 26 -13 26 C-13.33 24.35 -13.66 22.7 -14 21 C-14.33 21 -14.66 21 -15 21 C-14.66748921 13.35225178 -10.93078188 7.45937982 -6.05078125 1.69921875 C-4 0 -4 0 0 0 Z " fill="#181818" transform="translate(299,281)"/>
<path d="M0 0 C9.55052847 -0.72843014 17.90161486 1.4428629 27 4 C27 4.99 27 5.98 27 7 C26.3915625 6.87882813 25.783125 6.75765625 25.15625 6.6328125 C16.81252355 5.03768833 8.43153162 3.99443409 0 3 C0 2.01 0 1.02 0 0 Z " fill="#1B1B1B" transform="translate(244,216)"/>
<path d="M0 0 C3.57364359 0.57409032 6.28384304 1.49945036 9.42578125 3.28515625 C10.22177734 3.73310547 11.01777344 4.18105469 11.83789062 4.64257812 C12.65451172 5.11115234 13.47113281 5.57972656 14.3125 6.0625 C15.14845703 6.53494141 15.98441406 7.00738281 16.84570312 7.49414062 C18.90069265 8.65667756 20.95187737 9.82542091 23 11 C23 11.99 23 12.98 23 14 C17.73113948 13.47311395 13.70265579 10.77556913 9.25 8.125 C8.47011719 7.67769531 7.69023437 7.23039063 6.88671875 6.76953125 C6.14550781 6.33253906 5.40429688 5.89554688 4.640625 5.4453125 C3.96547852 5.04844238 3.29033203 4.65157227 2.59472656 4.24267578 C1 3 1 3 0 0 Z " fill="#141414" transform="translate(245,221)"/>
<path d="M0 0 C2.625 0.25 2.625 0.25 4.5 1.375 C6.17790631 4.17151052 5.37375648 6.18690532 4.625 9.25 C1.8125 9.5 1.8125 9.5 -1.375 9.25 C-3.3125 7.5 -3.3125 7.5 -4.375 5.25 C-3.9784022 1.77976927 -3.59076066 0.37797481 0 0 Z " fill="#0F0F0F" transform="translate(180.375,313.75)"/>
<path d="M0 0 C0.94875 0.04125 1.8975 0.0825 2.875 0.125 C4.2010274 5.54965753 4.2010274 5.54965753 2.8125 8 C0.11599753 9.56571111 -2.06630459 9.32891303 -5.125 9.125 C-5.25 5.75 -5.25 5.75 -5.125 2.125 C-3.125 0.125 -3.125 0.125 0 0 Z " fill="#0A0A0A" transform="translate(208.125,313.875)"/>
<path d="M0 0 C2.4375 0.1875 2.4375 0.1875 3.4375 1.1875 C3.625 4.625 3.625 4.625 3.4375 8.1875 C2.7775 8.8475 2.1175 9.5075 1.4375 10.1875 C-3.11805556 9.63194444 -3.11805556 9.63194444 -4.5625 8.1875 C-4.75 5.25 -4.75 5.25 -4.5625 2.1875 C-2.5625 0.1875 -2.5625 0.1875 0 0 Z " fill="#080808" transform="translate(199.5625,306.8125)"/>
<path d="M0 0 C2.5625 0.1875 2.5625 0.1875 4.5625 2.1875 C4.8125 5.1875 4.8125 5.1875 4.5625 8.1875 C3.9025 8.8475 3.2425 9.5075 2.5625 10.1875 C-0.37203261 9.82068342 -1.30187246 9.32312754 -3.4375 7.1875 C-3.625 4.125 -3.625 4.125 -3.4375 1.1875 C-2.4375 0.1875 -2.4375 0.1875 0 0 Z " fill="#040404" transform="translate(188.4375,306.8125)"/>
<path d="M0 0 C0.66 0.33 1.32 0.66 2 1 C2.625 3.5625 2.625 3.5625 3 6 C3.66 6 4.32 6 5 6 C4 9 4 9 2.00390625 10.16796875 C1.19824219 10.50441406 0.39257812 10.84085937 -0.4375 11.1875 C-1.24058594 11.53167969 -2.04367187 11.87585938 -2.87109375 12.23046875 C-5 13 -5 13 -7 13 C-6.67 11.68 -6.34 10.36 -6 9 C-5.34 9 -4.68 9 -4 9 C-4 7.35 -4 5.7 -4 4 C-3.01 3.67 -2.02 3.34 -1 3 C-0.67 2.01 -0.34 1.02 0 0 Z " fill="#191919" transform="translate(287,319)"/>
<path d="M0 0 C0.66 0.66 1.32 1.32 2 2 C0.72942818 2.47985967 -0.54146848 2.9588593 -1.8125 3.4375 C-2.87404297 3.83775391 -2.87404297 3.83775391 -3.95703125 4.24609375 C-5.62672396 4.86225186 -7.31157704 5.43719235 -9 6 C-10.22520264 9.00847418 -10.22520264 9.00847418 -11 12 C-11.99 12 -12.98 12 -14 12 C-14 7.84316202 -12.57311274 6.23288524 -10 3 C-4.22651934 -1.40883978 -4.22651934 -1.40883978 0 0 Z " fill="#191919" transform="translate(349,216)"/>
<path d="M0 0 C0.66 0.66 1.32 1.32 2 2 C-0.45714547 2.83698386 -2.91558857 3.66972424 -5.375 4.5 C-6.42300781 4.85771484 -6.42300781 4.85771484 -7.4921875 5.22265625 C-12.7734375 7 -12.7734375 7 -15 7 C-15 6.01 -15 5.02 -15 4 C-13.25705322 3.13153169 -11.50531337 2.28069373 -9.75 1.4375 C-8.77546875 0.96183594 -7.8009375 0.48617187 -6.796875 -0.00390625 C-3.87167105 -1.04570374 -2.79749175 -1.23163907 0 0 Z " fill="#161616" transform="translate(257,208)"/>
<path d="M0 0 C1.6254308 0.14095064 3.25034051 0.28792087 4.875 0.4375 C5.77992188 0.51871094 6.68484375 0.59992188 7.6171875 0.68359375 C10 1 10 1 12 2 C12 2.99 12 3.98 12 5 C8.37 4.34 4.74 3.68 1 3 C0.67 2.01 0.34 1.02 0 0 Z " fill="#141414" transform="translate(259,218)"/>
<path d="M0 0 C0.99 0.495 0.99 0.495 2 1 C3.70702735 1.06996014 5.41668003 1.08440154 7.125 1.0625 C8.03507812 1.05347656 8.94515625 1.04445313 9.8828125 1.03515625 C10.93082031 1.01775391 10.93082031 1.01775391 12 1 C11 4 11 4 9 5 C2.46666667 5.23333333 2.46666667 5.23333333 0 4 C0 2.68 0 1.36 0 0 Z " fill="#060606" transform="translate(258,337)"/>
<path d="M0 0 C4.29 0 8.58 0 13 0 C13.33 0.66 13.66 1.32 14 2 C9.05 2.33 4.1 2.66 -1 3 C-0.67 2.01 -0.34 1.02 0 0 Z " fill="#070707" transform="translate(349,214)"/>
<path d="M0 0 C0.66 0.33 1.32 0.66 2 1 C1.54625 1.7425 1.0925 2.485 0.625 3.25 C-0.68640796 5.46930578 -1.88280803 7.67967822 -3 10 C-3.66 9.34 -4.32 8.68 -5 8 C-4.875 5.5625 -4.875 5.5625 -4 3 C-1.9375 1.1875 -1.9375 1.1875 0 0 Z " fill="#191919" transform="translate(279,329)"/>
<path d="M0 0 C0.33 0 0.66 0 1 0 C1.33 3.96 1.66 7.92 2 12 C1.34 12 0.68 12 0 12 C-1.29449495 8.11651516 -1.13203312 5.09302664 -1 1 C-0.67 0.67 -0.34 0.34 0 0 Z " fill="#0A0A0A" transform="translate(285,301)"/>
<path d="M0 0 C0.66 0.66 1.32 1.32 2 2 C-0.64 2.66 -3.28 3.32 -6 4 C-6 2.68 -6 1.36 -6 0 C-3 -1 -3 -1 0 0 Z " fill="#242424" transform="translate(349,216)"/>
<path d="M0 0 C1.0625 1.875 1.0625 1.875 2 4 C1.67 4.66 1.34 5.32 1 6 C0.01 6 -0.98 6 -2 6 C-2 4.35 -2 2.7 -2 1 C-1.34 0.67 -0.68 0.34 0 0 Z " fill="#323232" transform="translate(353,317)"/>
<path d="M0 0 C2 1 2 1 3.125 4.0625 C3.41375 5.031875 3.7025 6.00125 4 7 C2.68 7 1.36 7 0 7 C0 4.69 0 2.38 0 0 Z " fill="#E7E7E7" transform="translate(287,319)"/>
</svg>
