<?xml version="1.0" encoding="UTF-8"?>
<svg version="1.1" xmlns="http://www.w3.org/2000/svg" width="448" height="94">
<path d="M0 0 C147.84 0 295.68 0 448 0 C448 31.02 448 62.04 448 94 C300.16 94 152.32 94 0 94 C0 62.98 0 31.96 0 0 Z " fill="#FBFBFB" transform="translate(0,0)"/>
<path d="M0 0 C9.37348878 4.5732639 9.37348878 4.5732639 11.8515625 7.76171875 C12.44376678 12.99285651 11.55974225 16.28280608 8.8515625 20.76171875 C6.8515625 22.76171875 6.8515625 22.76171875 3.5390625 23.26171875 C-0.365038 22.73234919 -0.75302248 22.58787866 -3.0859375 19.76171875 C-3.7665625 18.77171875 -4.4471875 17.78171875 -5.1484375 16.76171875 C-3.03517224 21.47014499 -3.03517224 21.47014499 0.8515625 24.76171875 C5.39313584 24.67761554 7.32832334 24.21816142 10.7890625 21.19921875 C11.4696875 20.39484375 12.1503125 19.59046875 12.8515625 18.76171875 C16.80554094 20.07971156 17.78985989 22.42828811 19.7265625 25.88671875 C20.07662354 26.50764404 20.42668457 27.12856934 20.78735352 27.76831055 C25.79645797 36.98261759 29.58068868 47.19763969 29.8515625 57.76171875 C29.9134375 58.93734375 29.9753125 60.11296875 30.0390625 61.32421875 C30.34171835 70.85787794 29.17550169 76.87968306 23.8515625 84.69921875 C19.93796081 88.73512049 16.34832424 89.08127357 10.94604492 89.24414062 C0.21067069 89.31516396 -6.92428985 88.25775856 -15.21875 80.93359375 C-19.80486957 76.21315269 -22.10433944 70.94896181 -24.1484375 64.76171875 C-24.4784375 63.77171875 -24.8084375 62.78171875 -25.1484375 61.76171875 C-25.21584615 60.20053447 -25.23358206 58.63669355 -25.2109375 57.07421875 C-25.20191406 56.26597656 -25.19289063 55.45773438 -25.18359375 54.625 C-25.16619141 53.70267578 -25.16619141 53.70267578 -25.1484375 52.76171875 C-23.8284375 52.10171875 -22.5084375 51.44171875 -21.1484375 50.76171875 C-19.52384387 53.68867256 -18.78802438 56.21416198 -18.2734375 59.51171875 C-16.77510725 67.28931091 -14.07925167 72.47956376 -8.02734375 77.6328125 C-5.76898874 78.98970356 -3.73799375 79.37528411 -1.1484375 79.76171875 C-1.97988281 79.07335937 -1.97988281 79.07335937 -2.828125 78.37109375 C-3.55257812 77.7575 -4.27703125 77.14390625 -5.0234375 76.51171875 C-5.74273437 75.9084375 -6.46203125 75.30515625 -7.203125 74.68359375 C-10.81987906 71.11041504 -11.45717554 68.15937566 -11.5234375 63.13671875 C-11.45820245 57.76787405 -10.23375333 53.98517034 -8.0546875 49.14453125 C-6.63643234 45.41549829 -6.16668869 41.6526203 -7.1484375 37.76171875 C-8.60289506 34.90676726 -8.60289506 34.90676726 -11.1484375 32.76171875 C-14.73865928 32.12737543 -14.73865928 32.12737543 -18.6484375 32.26171875 C-25.5720322 32.31623524 -25.5720322 32.31623524 -28.6171875 29.38671875 C-30.1484375 26.76171875 -30.1484375 26.76171875 -30.1484375 24.26171875 C-29.1484375 21.76171875 -29.1484375 21.76171875 -27.2109375 19.57421875 C-25.03205245 16.60301186 -24.81254974 15.36174072 -24.3359375 11.82421875 C-23.52727393 6.93581106 -21.89755612 4.87118308 -18 1.91796875 C-11.87036163 -1.9098223 -6.87277126 -2.70306264 0 0 Z " fill="#FF924F" transform="translate(70.1484375,5.23828125)"/>
<path d="M0 0 C1.26070312 0.08765625 2.52140625 0.1753125 3.8203125 0.265625 C4.82835938 0.42546875 5.83640625 0.5853125 6.875 0.75 C8.28500664 3.57001327 8.12048451 5.62007255 7.875 8.75 C7.38 9.4925 6.885 10.235 6.375 11 C4.07760664 15.21188782 4.23838597 19.0524586 4.875 23.75 C5.48570457 25.5821137 6.15467111 27.39564984 6.875 29.1875 C9.47761463 35.71719152 10.38825348 42.21907521 7.5625 48.8125 C4.87527287 51.89783485 2.6530002 52.9849508 -1.3125 53.375 C-2.570625 53.49875 -3.82875 53.6225 -5.125 53.75 C0.47231932 54.03951652 4.0433016 53.93452849 8.875 50.75 C13.62538041 45.73570956 15.07721485 40.29907448 16.875 33.75 C17.865 34.08 18.855 34.41 19.875 34.75 C20.38447733 41.65624821 20.1107185 47.07108655 15.875 52.75 C10.09240216 58.75366294 6.12829348 60.90811566 -2.3125 61.1875 C-8.17042612 61.23872528 -12.29473339 60.60509763 -16.671875 56.50390625 C-21.24738366 50.9813165 -21.64380209 45.8498931 -21.49609375 38.85546875 C-21.00817629 34.77237001 -19.57525281 31.40939248 -18.0234375 27.62890625 C-16.41424555 22.47249551 -16.47319642 17.08569446 -17.125 11.75 C-17.785 10.76 -18.445 9.77 -19.125 8.75 C-19.20405064 6.41800612 -19.21298769 4.08167378 -19.125 1.75 C-18.20267578 1.78480469 -18.20267578 1.78480469 -17.26171875 1.8203125 C-16.04935547 1.84738281 -16.04935547 1.84738281 -14.8125 1.875 C-13.61173828 1.90980469 -13.61173828 1.90980469 -12.38671875 1.9453125 C-7.64869708 1.53615692 -5.31635238 -0.41482832 0 0 Z " fill="#060606" transform="translate(25.125,33.25)"/>
<path d="M0 0 C1.51400391 0.01740234 1.51400391 0.01740234 3.05859375 0.03515625 C4.07050781 0.04417969 5.08242188 0.05320312 6.125 0.0625 C7.29869141 0.07990234 7.29869141 0.07990234 8.49609375 0.09765625 C10.70985762 5.02568713 12.45243114 9.90625462 13.93359375 15.09765625 C14.12501953 15.75121094 14.31644531 16.40476562 14.51367188 17.078125 C16.63207601 24.38627647 18.53478452 31.74274665 20.49609375 39.09765625 C20.82609375 26.22765625 21.15609375 13.35765625 21.49609375 0.09765625 C25.12609375 0.09765625 28.75609375 0.09765625 32.49609375 0.09765625 C32.49609375 13.95765625 32.49609375 27.81765625 32.49609375 42.09765625 C25.23609375 42.09765625 17.97609375 42.09765625 10.49609375 42.09765625 C9.83609375 40.44765625 9.17609375 38.79765625 8.49609375 37.09765625 C4.86609375 36.76765625 1.23609375 36.43765625 -2.50390625 36.09765625 C-3.16390625 38.07765625 -3.82390625 40.05765625 -4.50390625 42.09765625 C-8.13390625 42.09765625 -11.76390625 42.09765625 -15.50390625 42.09765625 C-3.91561438 0.15271507 -3.91561438 0.15271507 0 0 Z " fill="#0A0A0A" transform="translate(349.50390625,7.90234375)"/>
<path d="M0 0 C3.63 0 7.26 0 11 0 C11 5.28 11 10.56 11 16 C13.64 16 16.28 16 19 16 C19 10.72 19 5.44 19 0 C22.63 0 26.26 0 30 0 C30 13.86 30 27.72 30 42 C26.04 42 22.08 42 18 42 C18 37.05 18 32.1 18 27 C15.69 27 13.38 27 11 27 C11 31.95 11 36.9 11 42 C7.37 42 3.74 42 0 42 C0 28.14 0 14.28 0 0 Z " fill="#060606" transform="translate(132,8)"/>
<path d="M0 0 C3.96 0 7.92 0 12 0 C18.76225904 22.11862828 18.76225904 22.11862828 21.9375 32.8125 C22.14850342 33.51624756 22.35950684 34.21999512 22.5769043 34.94506836 C24 39.76620505 24 39.76620505 24 42 C20.37 42 16.74 42 13 42 C12.67 40.02 12.34 38.04 12 36 C8.04 36 4.08 36 0 36 C-0.33 37.98 -0.66 39.96 -1 42 C-4.63 42 -8.26 42 -12 42 C-11.33897186 35.68057101 -9.57904821 29.86437086 -7.6875 23.8125 C-7.37353271 22.79470459 -7.05956543 21.77690918 -6.73608398 20.72827148 C-4.58481444 13.78531108 -2.35503991 6.87671653 0 0 Z " fill="#060606" transform="translate(175,8)"/>
<path d="M0 0 C21 0 21 0 27 4 C29.9224897 8.38373454 30.559524 11.77777599 30 17 C28.54829301 20.59470303 27.06997933 23.5695997 24 26 C20.98509443 27.00496852 18.95818308 27.10335303 15.8125 27.0625 C14.224375 27.041875 12.63625 27.02125 11 27 C11 31.95 11 36.9 11 42 C7.37 42 3.74 42 0 42 C0 28.14 0 14.28 0 0 Z " fill="#030303" transform="translate(200,8)"/>
<path d="M0 0 C1.11246094 -0.01675781 2.22492188 -0.03351562 3.37109375 -0.05078125 C8.08653377 0.48598242 10.6154789 2.33988373 13.875 5.6875 C15.72627251 8.56725723 15.94519307 9.96393565 15.5625 13.3125 C12.5925 13.9725 9.6225 14.6325 6.5625 15.3125 C6.2325 14.3225 5.9025 13.3325 5.5625 12.3125 C2.60585481 10.8341774 -0.17979737 11.25217217 -3.4375 11.3125 C-3.1075 12.3025 -2.7775 13.2925 -2.4375 14.3125 C0.60815741 15.76143895 0.60815741 15.76143895 4.25 17.0625 C9.22845168 19.0696253 13.55856156 20.92256563 16.765625 25.38671875 C18.3271096 29.16030654 17.92922201 32.53099973 16.5625 36.3125 C13.99714804 39.55294458 12.475695 41.00810167 8.5625 42.3125 C-4.97216867 43.48942771 -4.97216867 43.48942771 -9.1875 40.0625 C-12.46265827 36.05952878 -13.4375 34.54894211 -13.4375 29.3125 C-10.4675 28.6525 -7.4975 27.9925 -4.4375 27.3125 C-4.086875 27.9725 -3.73625 28.6325 -3.375 29.3125 C-1.47192858 31.72353961 -1.47192858 31.72353961 2.25 31.5625 C3.343125 31.48 4.43625 31.3975 5.5625 31.3125 C5.8925 30.3225 6.2225 29.3325 6.5625 28.3125 C6.005625 28.14234375 5.44875 27.9721875 4.875 27.796875 C-9.13137377 23.34890495 -9.13137377 23.34890495 -13.4375 18.3125 C-14.67579052 14.59762845 -14.9878822 11.17271488 -14.4375 7.3125 C-10.73210569 1.22506649 -6.90727287 0.02395586 0 0 Z " fill="#070707" transform="translate(427.4375,7.6875)"/>
<path d="M0 0 C22.94193548 0 22.94193548 0 27.8515625 4.81640625 C29.34278684 7.65176138 29.39916244 9.74403127 29.375 12.9375 C29.38273437 13.95714844 29.39046875 14.97679687 29.3984375 16.02734375 C28.82286872 20.32153826 27.16695503 22.97449406 23.9375 25.8125 C19.55080691 27.58584401 15.71231737 27.18849269 11 27 C11 31.95 11 36.9 11 42 C7.37 42 3.74 42 0 42 C0 28.14 0 14.28 0 0 Z " fill="#040404" transform="translate(232,8)"/>
<path d="M0 0 C3.96 0 7.92 0 12 0 C13.32 3.63 14.64 7.26 16 11 C18.22825644 8.77174356 18.69239369 7.34238372 19.625 4.375 C20.07875 2.93125 20.5325 1.4875 21 0 C24.96 0 28.92 0 33 0 C31.50695824 5.0060812 29.78075112 9.46214979 27.33447266 14.08740234 C22.54988653 23.31325316 21.91748264 31.70890687 22 42 C18.37 42 14.74 42 11 42 C11.03222656 40.93265625 11.06445312 39.8653125 11.09765625 38.765625 C11.1202953 26.29434067 7.64234197 16.99513609 1.92382812 6.00439453 C1 4 1 4 0 0 Z " fill="#050505" transform="translate(262,8)"/>
<path d="M0 0 C9.9 0 19.8 0 30 0 C30 3.63 30 7.26 30 11 C26.7 11 23.4 11 20 11 C20 21.23 20 31.46 20 42 C16.37 42 12.74 42 9 42 C9 31.77 9 21.54 9 11 C6.03 11 3.06 11 0 11 C0 7.37 0 3.74 0 0 Z " fill="#050505" transform="translate(304,8)"/>
<path d="M0 0 C3.63 0 7.26 0 11 0 C11 10.23 11 20.46 11 31 C15.95 31 20.9 31 26 31 C26 34.63 26 38.26 26 42 C17.42 42 8.84 42 0 42 C0 28.14 0 14.28 0 0 Z " fill="#020202" transform="translate(385,8)"/>
<path d="M0 0 C3.3 0 6.6 0 10 0 C10 13.86 10 27.72 10 42 C6.7 42 3.4 42 0 42 C0 28.14 0 14.28 0 0 Z " fill="#000000" transform="translate(372,8)"/>
<path d="M0 0 C1.78701211 2.68051817 2.69012179 4.75630892 3.75 7.75 C7.66791986 17.55192313 13.64882711 21.45752634 23 26 C23 26.33 23 26.66 23 27 C10.46 27 -2.08 27 -15 27 C-14.01 26.34 -13.02 25.68 -12 25 C-5.75871906 20.2309567 -1.70972436 16.24486305 -0.609375 8.11328125 C-0.34618626 5.40867063 -0.14229304 2.71338115 0 0 Z " fill="#FBF9F8" transform="translate(45,67)"/>
<path d="M0 0 C0.99 0 1.98 0 3 0 C3 2.64 3 5.28 3 8 C3.639375 7.814375 4.27875 7.62875 4.9375 7.4375 C5.618125 7.293125 6.29875 7.14875 7 7 C8.96822886 8.96822886 8.66248381 12.34808709 9 15 C9.61875 14.05125 10.2375 13.1025 10.875 12.125 C13 9 13 9 15 7 C17.625 7.375 17.625 7.375 20 8 C19.67 9.32 19.34 10.64 19 12 C17.35 12.33 15.7 12.66 14 13 C14.33 13.66 14.66 14.32 15 15 C18.62885324 15.15149298 18.62885324 15.15149298 22 14 C21.67 14.99 21.34 15.98 21 17 C14.375 18.25 14.375 18.25 11 16 C10.34 16.66 9.68 17.32 9 18 C7.68 18 6.36 18 5 18 C4.67 15.36 4.34 12.72 4 10 C2.0549 12.91765 1.54723683 14.62537285 1 18 C0.01 18 -0.98 18 -2 18 C-1.67 13.71 -1.34 9.42 -1 5 C-2.98 5 -4.96 5 -7 5 C-7.66 9.29 -8.32 13.58 -9 18 C-9.66 18 -10.32 18 -11 18 C-11.10251672 12.87416389 -11.03590199 8.05002222 -10 3 C-10.99 3.33 -11.98 3.66 -13 4 C-13 5.32 -13 6.64 -13 8 C-14.32 7.67 -15.64 7.34 -17 7 C-16.125 3.125 -16.125 3.125 -15 2 C-12.46950598 1.92686433 -9.96695163 1.90752473 -7.4375 1.9375 C-6.72658203 1.94201172 -6.01566406 1.94652344 -5.28320312 1.95117188 C-3.52209987 1.96299136 -1.76103964 1.98092737 0 2 C0 1.34 0 0.68 0 0 Z " fill="#565656" transform="translate(199,72)"/>
<path d="M0 0 C0.99 0 1.98 0 3 0 C2.50130596 5.36891879 1.97772468 10.69235173 1 16 C1.99 15.34 2.98 14.68 4 14 C7 14 7 14 8.6875 15.5 C9.120625 15.995 9.55375 16.49 10 17 C10 16.01 10 15.02 10 14 C8.68 13.34 7.36 12.68 6 12 C6.33 10.68 6.66 9.36 7 8 C8.65 7.67 10.3 7.34 12 7 C12.66 8.32 13.32 9.64 14 11 C13.01 11 12.02 11 11 11 C11 10.34 11 9.68 11 9 C10.01 9 9.02 9 8 9 C8 9.66 8 10.32 8 11 C9.65 11.66 11.3 12.32 13 13 C12.125 16.875 12.125 16.875 11 18 C9.33391013 18.04384447 7.66619446 18.0396713 6 18 C5.01 18 4.02 18 3 18 C-0.33333333 18 -3.66666667 18 -7 18 C-7.66 15.69 -8.32 13.38 -9 11 C-8.34 11 -7.68 11 -7 11 C-6.67 10.01 -6.34 9.02 -6 8 C-4.02 8 -2.04 8 0 8 C0 5.36 0 2.72 0 0 Z " fill="#1D1D1D" transform="translate(317,72)"/>
<path d="M0 0 C0.66 0.33 1.32 0.66 2 1 C1.67 3.31 1.34 5.62 1 8 C1.66 7.67 2.32 7.34 3 7 C3.40729228 4.67843403 3.74438677 2.3431213 4 0 C4.99 0.33 5.98 0.66 7 1 C7 1.99 7 2.98 7 4 C8.98 2.68 10.96 1.36 13 0 C13.66 0.33 14.32 0.66 15 1 C14.34 3.64 13.68 6.28 13 9 C13.99 8.34 14.98 7.68 16 7 C16.73606499 3.43230448 16.73606499 3.43230448 17 0 C17.99 0.33 18.98 0.66 20 1 C20 1.99 20 2.98 20 4 C20.66 4.33 21.32 4.66 22 5 C21.01 5.33 20.02 5.66 19 6 C17.79117904 8.00016466 17.79117904 8.00016466 17 10 C14.625 10.125 14.625 10.125 12 10 C11.34 9.34 10.68 8.68 10 8 C10 7.01 10 6.02 10 5 C8.05000871 5.19471111 8.05000871 5.19471111 6 6 C4.71563266 7.9837767 4.71563266 7.9837767 4 10 C2.33388095 10.042721 0.66617115 10.04063832 -1 10 C-2 9 -2 9 -2.1875 5.5625 C-2 2 -2 2 0 0 Z " fill="#2B2B2B" transform="translate(286,80)"/>
<path d="M0 0 C0.5775 0.165 1.155 0.33 1.75 0.5 C4.26664369 1.14462031 4.26664369 1.14462031 8 1 C7.67 1.99 7.34 2.98 7 4 C6.360625 4.103125 5.72125 4.20625 5.0625 4.3125 C4.0415625 4.6528125 4.0415625 4.6528125 3 5 C1.6954344 7.99615946 1.6954344 7.99615946 1 11 C0.34 11 -0.32 11 -1 11 C-1.33 9.35 -1.66 7.7 -2 6 C-2.99 6.33 -3.98 6.66 -5 7 C-5.33 7.99 -5.66 8.98 -6 10 C-8.875 10.625 -8.875 10.625 -12 11 C-12.66 10.34 -13.32 9.68 -14 9 C-13.625 5.375 -13.625 5.375 -13 2 C-11.68 1.67 -10.36 1.34 -9 1 C-9.66 3.97 -10.32 6.94 -11 10 C-10.34 9.67 -9.68 9.34 -9 9 C-8.53476937 7.10466658 -8.53476937 7.10466658 -8.375 4.9375 C-8.25125 3.638125 -8.1275 2.33875 -8 1 C-7.01 1 -6.02 1 -5 1 C-4.34 1.99 -3.68 2.98 -3 4 C-2.34 3.67 -1.68 3.34 -1 3 C-0.67 2.01 -0.34 1.02 0 0 Z " fill="#232323" transform="translate(375,79)"/>
<path d="M0 0 C2.125 0.375 2.125 0.375 4 1 C4.33 3.31 4.66 5.62 5 8 C5.61875 7.05125 6.2375 6.1025 6.875 5.125 C9 2 9 2 11 0 C13.625 0.375 13.625 0.375 16 1 C15.67 2.32 15.34 3.64 15 5 C13.35 5.33 11.7 5.66 10 6 C10.33 6.66 10.66 7.32 11 8 C14.62885324 8.15149298 14.62885324 8.15149298 18 7 C17.67 7.99 17.34 8.98 17 10 C10.375 11.25 10.375 11.25 7 9 C6.34 9.66 5.68 10.32 5 11 C3.68 11 2.36 11 1 11 C0.8046875 8.94921875 0.609375 6.8984375 0.4140625 4.84765625 C0.27742187 4.23792969 0.14078125 3.62820312 0 3 C-0.66 2.67 -1.32 2.34 -2 2 C-1.34 1.34 -0.68 0.68 0 0 Z " fill="#323232" transform="translate(203,79)"/>
<path d="M0 0 C1.93166016 0.01740234 1.93166016 0.01740234 3.90234375 0.03515625 C5.19269531 0.04417969 6.48304688 0.05320312 7.8125 0.0625 C8.81152344 0.07410156 9.81054688 0.08570312 10.83984375 0.09765625 C10.50984375 1.08765625 10.17984375 2.07765625 9.83984375 3.09765625 C7.52984375 2.76765625 5.21984375 2.43765625 2.83984375 2.09765625 C2.83984375 3.74765625 2.83984375 5.39765625 2.83984375 7.09765625 C4.15984375 7.42765625 5.47984375 7.75765625 6.83984375 8.09765625 C5.18984375 8.09765625 3.53984375 8.09765625 1.83984375 8.09765625 C1.86046875 9.04640625 1.88109375 9.99515625 1.90234375 10.97265625 C1.83984375 14.09765625 1.83984375 14.09765625 0.83984375 16.09765625 C0.17984375 16.09765625 -0.48015625 16.09765625 -1.16015625 16.09765625 C-0.83015625 11.47765625 -0.50015625 6.85765625 -0.16015625 2.09765625 C-0.82015625 2.09765625 -1.48015625 2.09765625 -2.16015625 2.09765625 C-1.83015625 3.41765625 -1.50015625 4.73765625 -1.16015625 6.09765625 C-2.48015625 5.76765625 -3.80015625 5.43765625 -5.16015625 5.09765625 C-4.03724427 0.12476033 -4.03724427 0.12476033 0 0 Z " fill="#2A2A2A" transform="translate(274.16015625,73.90234375)"/>
<path d="M0 0 C2.5 1.1875 2.5 1.1875 4 3 C4.50545979 5.88834165 4.46958135 7.30798538 2.8125 9.75 C0.58183452 11.28838998 -1.3364031 11.64005447 -4 12 C-4.33 13.32 -4.66 14.64 -5 16 C-5.66 16 -6.32 16 -7 16 C-7.0272415 14.58344207 -7.04650467 13.16672955 -7.0625 11.75 C-7.07410156 10.96109375 -7.08570313 10.1721875 -7.09765625 9.359375 C-7.00385306 7.09308998 -6.63241063 5.1711105 -6 3 C-5.01 3 -4.02 3 -3 3 C-3.33 5.31 -3.66 7.62 -4 10 C-2.68 9.34 -1.36 8.68 0 8 C0 6.35 0 4.7 0 3 C-2.31 2.67 -4.62 2.34 -7 2 C-7.33 3.32 -7.66 4.64 -8 6 C-8.99 6 -9.98 6 -11 6 C-10.625 3.5625 -10.625 3.5625 -10 1 C-6.80925528 -0.59537236 -3.47169561 -0.37735822 0 0 Z " fill="#141414" transform="translate(239,74)"/>
<path d="M0 0 C3 0.25 3 0.25 5 2.25 C5 3.57 5 4.89 5 6.25 C4.01 5.92 3.02 5.59 2 5.25 C2 4.26 2 3.27 2 2.25 C1.01 2.25 0.02 2.25 -1 2.25 C-1.33 3.57 -1.66 4.89 -2 6.25 C-1.195625 6.476875 -0.39125 6.70375 0.4375 6.9375 C3 8.25 3 8.25 4 10.6875 C4 13.25 4 13.25 2.9375 15.0625 C0.18513382 16.74943411 -1.8357765 16.58661952 -5 16.25 C-5.66 15.59 -6.32 14.93 -7 14.25 C-6.625 12.125 -6.625 12.125 -6 10.25 C-5.34 10.25 -4.68 10.25 -4 10.25 C-3.67 11.57 -3.34 12.89 -3 14.25 C-2.01 14.25 -1.02 14.25 0 14.25 C-0.20376178 12.34415804 -0.20376178 12.34415804 -1 10.25 C-1.680625 9.775625 -2.36125 9.30125 -3.0625 8.8125 C-5 7.25 -5 7.25 -5.375 4.6875 C-4.79612287 0.92479869 -3.73865238 0.31155437 0 0 Z " fill="#171717" transform="translate(347,73.75)"/>
<path d="M0 0 C1.58468677 0.45363171 3.16769924 0.91311452 4.75 1.375 C5.63171875 1.63023438 6.5134375 1.88546875 7.421875 2.1484375 C9.76080572 2.9209934 11.83442562 3.83625676 14 5 C13.67 6.32 13.34 7.64 13 9 C6.51707705 9.3669579 6.51707705 9.3669579 4.0625 7.625 C3 6 3 6 3 4 C2.01 4.33 1.02 4.66 0 5 C0 3.35 0 1.7 0 0 Z " fill="#ECECEC" transform="translate(420,31)"/>
<path d="M0 0 C3.625 0.1875 3.625 0.1875 6.625 2.1875 C7.3125 5.3125 7.3125 5.3125 7.625 8.1875 C5.99507308 7.79054363 4.37107765 7.36917507 2.75 6.9375 C1.39261719 6.58945312 1.39261719 6.58945312 0.0078125 6.234375 C-2.375 5.1875 -2.375 5.1875 -3.6953125 3.078125 C-3.91960937 2.45421875 -4.14390625 1.8303125 -4.375 1.1875 C-3.375 0.1875 -3.375 0.1875 0 0 Z " fill="#E5E5E5" transform="translate(427.375,17.8125)"/>
<path d="M0 0 C1.1446875 0.3403125 1.1446875 0.3403125 2.3125 0.6875 C1.9825 2.0075 1.6525 3.3275 1.3125 4.6875 C-0.3375 5.0175 -1.9875 5.3475 -3.6875 5.6875 C-3.3575 6.3475 -3.0275 7.0075 -2.6875 7.6875 C0.94135324 7.83899298 0.94135324 7.83899298 4.3125 6.6875 C3.9825 7.6775 3.6525 8.6675 3.3125 9.6875 C-0.0625 10.3125 -0.0625 10.3125 -3.6875 10.6875 C-5.6875 8.6875 -5.6875 8.6875 -6 5.75 C-5.6875 2.6875 -5.6875 2.6875 -4.5 0.75 C-2.6875 -0.3125 -2.6875 -0.3125 0 0 Z " fill="#222222" transform="translate(390.6875,79.3125)"/>
<path d="M0 0 C0.7425 0.2475 1.485 0.495 2.25 0.75 C1.92 2.07 1.59 3.39 1.25 4.75 C-0.4 5.08 -2.05 5.41 -3.75 5.75 C-3.42 6.41 -3.09 7.07 -2.75 7.75 C-0.22266765 8.40555119 -0.22266765 8.40555119 2.25 8.75 C1.92 9.41 1.59 10.07 1.25 10.75 C-1.06 10.42 -3.37 10.09 -5.75 9.75 C-6.5 7 -6.5 7 -6.75 3.75 C-4.66788764 0.62683146 -3.81124618 -0.34647693 0 0 Z " fill="#1D1D1D" transform="translate(250.75,79.25)"/>
<path d="M0 0 C1.67542976 0.28604898 3.34385343 0.61781233 5 1 C5.33 1.99 5.66 2.98 6 4 C5.01 4 4.02 4 3 4 C3 3.34 3 2.68 3 2 C2.01 2 1.02 2 0 2 C0 2.66 0 3.32 0 4 C2.475 4.99 2.475 4.99 5 6 C4.125 9.875 4.125 9.875 3 11 C-0.06481021 11.1613058 -2.05549278 10.98150241 -5 10 C-4.67 9.01 -4.34 8.02 -4 7 C-1 7 -1 7 0.6875 8.5 C1.120625 8.995 1.55375 9.49 2 10 C2 9.01 2 8.02 2 7 C0.68 6.34 -0.64 5.68 -2 5 C-1.125 1.125 -1.125 1.125 0 0 Z " fill="#252525" transform="translate(325,79)"/>
<path d="M0 0 C3.375 -0.125 3.375 -0.125 7 0 C9 2 9 2 9 6 C6.04335481 7.4783226 3.25770263 7.06032783 0 7 C0 4.69 0 2.38 0 0 Z " fill="#E4E4E4" transform="translate(211,18)"/>
<path d="M0 0 C2.33294775 -0.04241723 4.66702567 -0.04092937 7 0 C8 1 8 1 8.125 3.5 C8 6 8 6 7 7 C4.66702567 7.04092937 2.33294775 7.04241723 0 7 C0 4.69 0 2.38 0 0 Z " fill="#E8E8E8" transform="translate(243,18)"/>
<path d="M0 0 C0.99 0 1.98 0 3 0 C3 0.99 3 1.98 3 3 C3.66 3.33 4.32 3.66 5 4 C4.01 4.33 3.02 4.66 2 5 C2 7.31 2 9.62 2 12 C2.99 11.67 3.98 11.34 5 11 C5 11.66 5 12.32 5 13 C3.34385343 13.38218767 1.67542976 13.71395102 0 14 C-1.66342837 12.33657163 -1.36048097 10.2174291 -1.5625 7.9375 C-1.64628906 7.01839844 -1.73007812 6.09929687 -1.81640625 5.15234375 C-1.90728516 4.08693359 -1.90728516 4.08693359 -2 3 C-1.34 3 -0.68 3 0 3 C0 2.01 0 1.02 0 0 Z " fill="#313131" transform="translate(355,76)"/>
<path d="M0 0 C0.99 0 1.98 0 3 0 C3.20852314 6.40629424 3.1583195 11.92972642 1 18 C0.01 18 -0.98 18 -2 18 C-1.42085333 11.98673249 -0.77662055 5.99107278 0 0 Z " fill="#212121" transform="translate(199,72)"/>
<path d="M0 0 C6.57692308 0.57692308 6.57692308 0.57692308 8 2 C8.1875 4.4375 8.1875 4.4375 8 7 C7.34 7.66 6.68 8.32 6 9 C5.01 9 4.02 9 3 9 C3.33 6.69 3.66 4.38 4 2 C3.01 2 2.02 2 1 2 C0.67 3.32 0.34 4.64 0 6 C-0.66 4.68 -1.32 3.36 -2 2 C-1.34 1.34 -0.68 0.68 0 0 Z " fill="#EEEEEE" transform="translate(232,75)"/>
<path d="M0 0 C0.99 0.33 1.98 0.66 3 1 C3.33 1.99 3.66 2.98 4 4 C3.34 4 2.68 4 2 4 C1.67 6.64 1.34 9.28 1 12 C2.32 11.67 3.64 11.34 5 11 C5 11.66 5 12.32 5 13 C3.34385343 13.38218767 1.67542976 13.71395102 0 14 C-1.66342837 12.33657163 -1.36048097 10.2174291 -1.5625 7.9375 C-1.64628906 7.01839844 -1.73007813 6.09929687 -1.81640625 5.15234375 C-1.90728516 4.08693359 -1.90728516 4.08693359 -2 3 C-1.34 3 -0.68 3 0 3 C0 2.01 0 1.02 0 0 Z " fill="#2E2E2E" transform="translate(257,76)"/>
<path d="M0 0 C2.64 0 5.28 0 8 0 C8 0.33 8 0.66 8 1 C6.02 1 4.04 1 2 1 C1.34 5.62 0.68 10.24 0 15 C-0.66 15 -1.32 15 -2 15 C-2.21755666 9.5610835 -2.10428384 5.12919186 0 0 Z " fill="#030303" transform="translate(190,75)"/>
<path d="M0 0 C0.99 0.33 1.98 0.66 3 1 C2.67 1.33 2.34 1.66 2 2 C1.63239269 4.32817964 1.29758419 6.6618385 1 9 C3.33075929 8.04134491 3.33075929 8.04134491 5 5 C5.33 6.32 5.66 7.64 6 9 C3.125 9.625 3.125 9.625 0 10 C-0.66 9.34 -1.32 8.68 -2 8 C-1.42307692 1.42307692 -1.42307692 1.42307692 0 0 Z " fill="#1F1F1F" transform="translate(363,80)"/>
<path d="M0 0 C0.66 0.33 1.32 0.66 2 1 C2.4140625 3.28515625 2.4140625 3.28515625 2.625 6.0625 C2.69976562 6.98160156 2.77453125 7.90070312 2.8515625 8.84765625 C2.90054688 9.55792969 2.94953125 10.26820312 3 11 C1.35 11 -0.3 11 -2 11 C-1.34 7.37 -0.68 3.74 0 0 Z " fill="#D5D5D5" transform="translate(180,23)"/>
<path d="M0 0 C1.31807171 1.97710757 2.57108082 3.99939144 3.75 6.0625 C6.35453537 9.46286562 7.99377247 9.84264538 12 11 C12.33 11.99 12.66 12.98 13 14 C6.63265306 13.63265306 6.63265306 13.63265306 3.6875 10.6875 C0 4.81481481 0 4.81481481 0 0 Z " fill="#FFE4D4" transform="translate(63,17)"/>
<path d="M0 0 C2.12046792 3.53411321 2.53199289 6.94393835 3 11 C1.35 11 -0.3 11 -2 11 C-1 3.57142857 -1 3.57142857 0 0 Z " fill="#DBDBDB" transform="translate(352,23)"/>
<path d="M0 0 C1.98 0.495 1.98 0.495 4 1 C3.75 4.375 3.75 4.375 3 8 C0.9375 9.4375 0.9375 9.4375 -1 10 C-1.08004482 6.4780279 -1.04005702 3.38018531 0 0 Z " fill="#CECECE" transform="translate(300,79)"/>
<path d="M0 0 C1.98 0.495 1.98 0.495 4 1 C3.6875 4.375 3.6875 4.375 3 8 C2.01 8.66 1.02 9.32 0 10 C-0.33 9.67 -0.66 9.34 -1 9 C-0.91062197 7.47480724 -0.75462854 5.95318071 -0.5625 4.4375 C-0.46066406 3.61121094 -0.35882813 2.78492187 -0.25390625 1.93359375 C-0.17011719 1.29550781 -0.08632813 0.65742187 0 0 Z " fill="#CBCBCB" transform="translate(287,79)"/>
<path d="M0 0 C0.99 0.33 1.98 0.66 3 1 C3 1.99 3 2.98 3 4 C3.66 4.33 4.32 4.66 5 5 C4.01 5.33 3.02 5.66 2 6 C0.79117904 8.00016466 0.79117904 8.00016466 0 10 C-0.66 10 -1.32 10 -2 10 C-1.34 6.7 -0.68 3.4 0 0 Z " fill="#222222" transform="translate(303,80)"/>
<path d="M0 0 C0.33 0.66 0.66 1.32 1 2 C2.65 2 4.3 2 6 2 C6 2.33 6 2.66 6 3 C4.35 3 2.7 3 1 3 C1.020625 3.94875 1.04125 4.8975 1.0625 5.875 C1 9 1 9 0 11 C-0.66 11 -1.32 11 -2 11 C-2.28571429 3.57142857 -2.28571429 3.57142857 0 0 Z " fill="#0E0E0E" transform="translate(275,79)"/>
<path d="M0 0 C0.99 0 1.98 0 3 0 C3.66 0.99 4.32 1.98 5 3 C5.99 2.67 6.98 2.34 8 2 C8 2.66 8 3.32 8 4 C7.195625 4.28875 6.39125 4.5775 5.5625 4.875 C2.8673532 5.73262568 2.8673532 5.73262568 2 8 C-0.1519437 4.77208445 -0.20086443 3.71599191 0 0 Z " fill="#393939" transform="translate(367,80)"/>
<path d="M0 0 C1.98 0.495 1.98 0.495 4 1 C3.67 1.66 3.34 2.32 3 3 C2.31744011 5.32873375 1.64949225 7.66182791 1 10 C0.34 10 -0.32 10 -1 10 C-1.125 3.375 -1.125 3.375 0 0 Z " fill="#DCDCDC" transform="translate(365,79)"/>
<path d="M0 0 C1.65 0.33 3.3 0.66 5 1 C4.6875 2.9375 4.6875 2.9375 4 5 C3.01 5.33 2.02 5.66 1 6 C0.34 5.34 -0.32 4.68 -1 4 C-0.625 1.875 -0.625 1.875 0 0 Z " fill="#6F6F6F" transform="translate(388,79)"/>
<path d="M0 0 C1.65 0.33 3.3 0.66 5 1 C4.6875 2.9375 4.6875 2.9375 4 5 C3.01 5.33 2.02 5.66 1 6 C0.34 5.67 -0.32 5.34 -1 5 C-0.67 3.35 -0.34 1.7 0 0 Z " fill="#757575" transform="translate(248,79)"/>
<path d="M0 0 C1.65 0.33 3.3 0.66 5 1 C4.6875 2.9375 4.6875 2.9375 4 5 C3.01 5.33 2.02 5.66 1 6 C0.34 5.34 -0.32 4.68 -1 4 C-0.625 1.875 -0.625 1.875 0 0 Z " fill="#6F6F6F" transform="translate(214,79)"/>
<path d="M0 0 C0.66 0.66 1.32 1.32 2 2 C1.34 4.31 0.68 6.62 0 9 C-0.99 9 -1.98 9 -3 9 C-2.25 2.25 -2.25 2.25 0 0 Z " fill="#191919" transform="translate(200,81)"/>
<path d="M0 0 C1.32 0.66 2.64 1.32 4 2 C3.67 3.32 3.34 4.64 3 6 C1.68 5.67 0.36 5.34 -1 5 C-0.67 3.35 -0.34 1.7 0 0 Z " fill="#EFEFEF" transform="translate(344,83)"/>
<path d="M0 0 C0.66 0 1.32 0 2 0 C2.33 1.32 2.66 2.64 3 4 C4.98 4 6.96 4 9 4 C7 6 7 6 4 6.25 C1 6 1 6 -1 4 C-0.625 1.875 -0.625 1.875 0 0 Z " fill="#363636" transform="translate(341,84)"/>
<path d="M0 0 C3.0625 0.1875 3.0625 0.1875 5.0625 2.1875 C5.0625 3.5075 5.0625 4.8275 5.0625 6.1875 C4.0725 5.8575 3.0825 5.5275 2.0625 5.1875 C2.0625 4.1975 2.0625 3.2075 2.0625 2.1875 C1.0725 2.1875 0.0825 2.1875 -0.9375 2.1875 C-1.9275 3.6725 -1.9275 3.6725 -2.9375 5.1875 C-3.5 3.25 -3.5 3.25 -3.9375 1.1875 C-2.9375 0.1875 -2.9375 0.1875 0 0 Z " fill="#2F2F2F" transform="translate(346.9375,73.8125)"/>
<path d="M0 0 C0.66 0 1.32 0 2 0 C2 1.98 2 3.96 2 6 C3.32 5.67 4.64 5.34 6 5 C6 5.66 6 6.32 6 7 C4.34385343 7.38218767 2.67542976 7.71395102 1 8 C0 7 0 7 -0.0625 3.4375 C-0.041875 2.303125 -0.02125 1.16875 0 0 Z " fill="#111111" transform="translate(256,82)"/>
<path d="M0 0 C0.66 0.33 1.32 0.66 2 1 C1.34 3.64 0.68 6.28 0 9 C0.66 9.33 1.32 9.66 2 10 C0.68 9.67 -0.64 9.34 -2 9 C-2.125 5.625 -2.125 5.625 -2 2 C-1.34 1.34 -0.68 0.68 0 0 Z " fill="#0E0E0E" transform="translate(299,80)"/>
<path d="M0 0 C0.99 0 1.98 0 3 0 C3 0.99 3 1.98 3 3 C3.66 3.33 4.32 3.66 5 4 C4.01 4.33 3.02 4.66 2 5 C2 5.66 2 6.32 2 7 C1.34 7 0.68 7 0 7 C0 4.69 0 2.38 0 0 Z " fill="#292929" transform="translate(355,76)"/>
<path d="M0 0 C2.0625 0.4375 2.0625 0.4375 4 1 C3.67 1.99 3.34 2.98 3 4 C3 3.34 3 2.68 3 2 C2.34 2 1.68 2 1 2 C1.33 3.32 1.66 4.64 2 6 C0.68 5.67 -0.64 5.34 -2 5 C-1.125 1.125 -1.125 1.125 0 0 Z " fill="#4B4B4B" transform="translate(271,74)"/>
<path d="M0 0 C-2 2 -2 2 -4.625 2.125 C-5.40875 2.08375 -6.1925 2.0425 -7 2 C-7.33 3.32 -7.66 4.64 -8 6 C-8.99 6 -9.98 6 -11 6 C-10.625 3.5625 -10.625 3.5625 -10 1 C-6.78548731 -0.60725635 -3.56387464 -0.05748185 0 0 Z " fill="#202020" transform="translate(239,74)"/>
<path d="M0 0 C0.99 0 1.98 0 3 0 C2.67 1.98 2.34 3.96 2 6 C1.01 6.33 0.02 6.66 -1 7 C-0.67 4.69 -0.34 2.38 0 0 Z " fill="#ECECEC" transform="translate(313,81)"/>
<path d="M0 0 C2.125 0.375 2.125 0.375 4 1 C4 3.64 4 6.28 4 9 C2.49440461 7.03617993 1.10868317 5.21736634 0 3 C-0.66 2.67 -1.32 2.34 -2 2 C-1.34 1.34 -0.68 0.68 0 0 Z " fill="#434343" transform="translate(203,79)"/>
<path d="M0 0 C1.32 0.33 2.64 0.66 4 1 C3.34 1 2.68 1 2 1 C1.67 2.98 1.34 4.96 1 7 C0.01 6.67 -0.98 6.34 -2 6 C-2.33 5.01 -2.66 4.02 -3 3 C-2.34 3 -1.68 3 -1 3 C-0.67 2.01 -0.34 1.02 0 0 Z " fill="#262626" transform="translate(311,80)"/>
<path d="M0 0 C0.33 0 0.66 0 1 0 C1 1.98 1 3.96 1 6 C1.99 6.33 2.98 6.66 4 7 C2.35 7.33 0.7 7.66 -1 8 C-1.125 2.25 -1.125 2.25 0 0 Z " fill="#121212" transform="translate(205,82)"/>
<path d="M0 0 C0.33 0.66 0.66 1.32 1 2 C1.66 2 2.32 2 3 2 C2.67 4.31 2.34 6.62 2 9 C1.34 9 0.68 9 0 9 C0 6.03 0 3.06 0 0 Z " fill="#151515" transform="translate(188,81)"/>
<path d="M0 0 C0.66 0.33 1.32 0.66 2 1 C1.34 3.64 0.68 6.28 0 9 C-0.66 9 -1.32 9 -2 9 C-2.125 5.625 -2.125 5.625 -2 2 C-1.34 1.34 -0.68 0.68 0 0 Z " fill="#080808" transform="translate(286,80)"/>
<path d="M0 0 C0.78375 0.04125 1.5675 0.0825 2.375 0.125 C2.045 0.785 1.715 1.445 1.375 2.125 C0.385 2.125 -0.605 2.125 -1.625 2.125 C-1.955 3.445 -2.285 4.765 -2.625 6.125 C-3.285 4.805 -3.945 3.485 -4.625 2.125 C-2.625 0.125 -2.625 0.125 0 0 Z " fill="#BBBBBB" transform="translate(234.625,74.875)"/>
<path d="M0 0 C3 0 3 0 4.6875 1.5 C5.120625 1.995 5.55375 2.49 6 3 C6.33 2.34 6.66 1.68 7 1 C7 1.99 7 2.98 7 4 C3.95613276 4.08226668 1.92824652 3.97608217 -1 3 C-0.67 2.01 -0.34 1.02 0 0 Z " fill="#3F3F3F" transform="translate(321,86)"/>
<path d="M0 0 C1.36511719 0.43119141 1.36511719 0.43119141 2.7578125 0.87109375 C3.45648438 1.09925781 4.15515625 1.32742187 4.875 1.5625 C4.875 1.8925 4.875 2.2225 4.875 2.5625 C3.43663249 2.44791307 1.99929034 2.32040884 0.5625 2.1875 C-0.23800781 2.11789063 -1.03851563 2.04828125 -1.86328125 1.9765625 C-4.125 1.5625 -4.125 1.5625 -7.125 -0.4375 C-4.30685434 -1.84657283 -2.95222796 -0.94622691 0 0 Z " fill="#FFEADD" transform="translate(71.125,84.4375)"/>
</svg>
