<?xml version="1.0" encoding="UTF-8"?>
<svg version="1.1" xmlns="http://www.w3.org/2000/svg" width="500" height="500">
<path d="M0 0 C165 0 330 0 500 0 C500 165 500 330 500 500 C335 500 170 500 0 500 C0 335 0 170 0 0 Z " fill="#FEFEFE" transform="translate(0,0)"/>
<path d="M0 0 C0 0.66 0 1.32 0 2 C0.61746094 2.09796875 1.23492187 2.1959375 1.87109375 2.296875 C7.14629457 3.2282651 11.71814455 4.54846644 16.55078125 6.84765625 C19.51785769 8.24364915 22.5327608 9.49619234 25.5625 10.75 C27.11130859 11.39195313 27.11130859 11.39195313 28.69140625 12.046875 C29.45324219 12.36140625 30.21507812 12.6759375 31 13 C31 13.66 31 14.32 31 15 C31.83402344 15.2371875 32.66804688 15.474375 33.52734375 15.71875 C37.57098427 17.21066686 40.9399162 19.19347772 44.5625 21.5 C45.26358887 21.94432373 45.96467773 22.38864746 46.68701172 22.84643555 C61.67759226 32.48372304 75.7167984 44.14628485 87 58 C87.69222656 58.804375 88.38445312 59.60875 89.09765625 60.4375 C95.11634852 67.54017629 100.22171946 75.0355382 105 83 C105.40895508 83.67949707 105.81791016 84.35899414 106.23925781 85.05908203 C123.55199718 114.16021091 132.47429556 146.8252402 132.3125 180.6875 C132.30976578 181.87712845 132.30976578 181.87712845 132.30697632 183.09078979 C132.261052 194.96604169 131.76204536 206.40479883 129 218 C128.82839355 218.75909668 128.65678711 219.51819336 128.47998047 220.30029297 C124.3124159 238.47891913 117.83731053 255.5933595 109 272 C108.51877686 272.91023926 108.51877686 272.91023926 108.02783203 273.83886719 C103.1885155 282.94730145 97.51672156 291.04498949 91 299 C90.5575293 299.54543457 90.11505859 300.09086914 89.65917969 300.65283203 C72.32750142 321.93943183 51.66304889 338.21897528 27.1875 350.625 C26.51130615 350.96829346 25.8351123 351.31158691 25.13842773 351.6652832 C22.23586097 353.08963938 20.27612896 354 17 354 C16.67 354.99 16.34 355.98 16 357 C13.83984375 357.7734375 13.83984375 357.7734375 10.9375 358.375 C5.95774639 359.49338438 1.15170122 360.89249386 -3.6875 362.5 C-10.27210117 364.65312123 -16.83922878 366.0332563 -23.68041992 367.09960938 C-27.13442665 367.37320593 -27.13442665 367.37320593 -30 369 C-52.96115725 372.23036524 -79.64241512 372.24761116 -102 366 C-103.41780762 365.60603027 -103.41780762 365.60603027 -104.86425781 365.20410156 C-114.23796345 362.52896426 -123.1692087 359.63839874 -131.81884766 355.09667969 C-134.4650625 353.76616737 -137.15757753 352.8228065 -140 352 C-140 351.34 -140 350.68 -140 350 C-141.423125 349.690625 -141.423125 349.690625 -142.875 349.375 C-148.11353958 347.86327716 -152.45163657 344.93505504 -157 342 C-157.98742187 341.36449219 -158.97484375 340.72898437 -159.9921875 340.07421875 C-170.73243738 333.03703212 -180.23133369 325.19696122 -189.53417969 316.38671875 C-190.76838681 315.21911441 -192.01203629 314.06150268 -193.2578125 312.90625 C-212.74243075 294.28936778 -227.44070932 268.36280614 -236 243 C-236.37898438 241.87851562 -236.75796875 240.75703125 -237.1484375 239.6015625 C-239.31125998 232.88542954 -240.93687307 226.13079753 -242.34375 219.21875 C-242.88854577 216.54665645 -243.4901366 213.90148833 -244.125 211.25 C-251.78865725 176.31160506 -244.56026281 136.06340837 -230 104 C-229.68836914 103.30648437 -229.37673828 102.61296875 -229.05566406 101.8984375 C-221.39177297 85.09464666 -211.42486604 69.649666 -199 56 C-198.04863169 54.92913773 -197.09811984 53.85751399 -196.1484375 52.78515625 C-191.0920277 47.11968679 -185.91441661 41.78056472 -180 37 C-178.99582031 36.16984375 -177.99164063 35.3396875 -176.95703125 34.484375 C-168.42684826 27.53390113 -159.45398651 21.61289314 -150 16 C-149.05253906 15.42765625 -148.10507813 14.8553125 -147.12890625 14.265625 C-141.54248596 11 -141.54248596 11 -137 11 C-137 10.34 -137 9.68 -137 9 C-125.02053022 3.8860911 -113.14731173 -0.57822306 -100.42626953 -3.44873047 C-98.81672441 -3.81443311 -97.2107291 -4.19614921 -95.60888672 -4.59423828 C-64.65021624 -12.21703957 -30.18852705 -9.42925598 0 0 Z " fill="#E3E3E3" transform="translate(304,61)"/>
<path d="M0 0 C0 0.66 0 1.32 0 2 C0.61746094 2.09796875 1.23492187 2.1959375 1.87109375 2.296875 C7.14629457 3.2282651 11.71814455 4.54846644 16.55078125 6.84765625 C19.51785769 8.24364915 22.5327608 9.49619234 25.5625 10.75 C27.11130859 11.39195313 27.11130859 11.39195313 28.69140625 12.046875 C29.45324219 12.36140625 30.21507812 12.6759375 31 13 C31 13.66 31 14.32 31 15 C31.83402344 15.2371875 32.66804688 15.474375 33.52734375 15.71875 C37.57098427 17.21066686 40.9399162 19.19347772 44.5625 21.5 C45.26358887 21.94432373 45.96467773 22.38864746 46.68701172 22.84643555 C61.67759226 32.48372304 75.7167984 44.14628485 87 58 C87.69222656 58.804375 88.38445312 59.60875 89.09765625 60.4375 C95.11634852 67.54017629 100.22171946 75.0355382 105 83 C105.40895508 83.67949707 105.81791016 84.35899414 106.23925781 85.05908203 C123.55199718 114.16021091 132.47429556 146.8252402 132.3125 180.6875 C132.30976578 181.87712845 132.30976578 181.87712845 132.30697632 183.09078979 C132.261052 194.96604169 131.76204536 206.40479883 129 218 C128.82839355 218.75909668 128.65678711 219.51819336 128.47998047 220.30029297 C124.3124159 238.47891913 117.83731053 255.5933595 109 272 C108.51877686 272.91023926 108.51877686 272.91023926 108.02783203 273.83886719 C103.1885155 282.94730145 97.51672156 291.04498949 91 299 C90.5575293 299.54543457 90.11505859 300.09086914 89.65917969 300.65283203 C72.32750142 321.93943183 51.66304889 338.21897528 27.1875 350.625 C26.51130615 350.96829346 25.8351123 351.31158691 25.13842773 351.6652832 C22.23586097 353.08963938 20.27612896 354 17 354 C16.67 354.99 16.34 355.98 16 357 C13.83984375 357.7734375 13.83984375 357.7734375 10.9375 358.375 C5.95774639 359.49338438 1.15170122 360.89249386 -3.6875 362.5 C-10.27210117 364.65312123 -16.83922878 366.0332563 -23.68041992 367.09960938 C-27.13442665 367.37320593 -27.13442665 367.37320593 -30 369 C-52.96115725 372.23036524 -79.64241512 372.24761116 -102 366 C-103.41780762 365.60603027 -103.41780762 365.60603027 -104.86425781 365.20410156 C-114.23796345 362.52896426 -123.1692087 359.63839874 -131.81884766 355.09667969 C-134.4650625 353.76616737 -137.15757753 352.8228065 -140 352 C-140 351.34 -140 350.68 -140 350 C-141.423125 349.690625 -141.423125 349.690625 -142.875 349.375 C-148.11353958 347.86327716 -152.45163657 344.93505504 -157 342 C-157.98742187 341.36449219 -158.97484375 340.72898437 -159.9921875 340.07421875 C-170.73243738 333.03703212 -180.23133369 325.19696122 -189.53417969 316.38671875 C-190.76838681 315.21911441 -192.01203629 314.06150268 -193.2578125 312.90625 C-212.74243075 294.28936778 -227.44070932 268.36280614 -236 243 C-236.37898438 241.87851562 -236.75796875 240.75703125 -237.1484375 239.6015625 C-239.31125998 232.88542954 -240.93687307 226.13079753 -242.34375 219.21875 C-242.88854577 216.54665645 -243.4901366 213.90148833 -244.125 211.25 C-251.78865725 176.31160506 -244.56026281 136.06340837 -230 104 C-229.68836914 103.30648437 -229.37673828 102.61296875 -229.05566406 101.8984375 C-221.39177297 85.09464666 -211.42486604 69.649666 -199 56 C-198.04863169 54.92913773 -197.09811984 53.85751399 -196.1484375 52.78515625 C-191.0920277 47.11968679 -185.91441661 41.78056472 -180 37 C-178.99582031 36.16984375 -177.99164063 35.3396875 -176.95703125 34.484375 C-168.42684826 27.53390113 -159.45398651 21.61289314 -150 16 C-149.05253906 15.42765625 -148.10507813 14.8553125 -147.12890625 14.265625 C-141.54248596 11 -141.54248596 11 -137 11 C-137 10.34 -137 9.68 -137 9 C-125.02053022 3.8860911 -113.14731173 -0.57822306 -100.42626953 -3.44873047 C-98.81672441 -3.81443311 -97.2107291 -4.19614921 -95.60888672 -4.59423828 C-64.65021624 -12.21703957 -30.18852705 -9.42925598 0 0 Z M-103 13 C-103.92329102 13.28891113 -104.84658203 13.57782227 -105.79785156 13.87548828 C-114.03759895 16.51941687 -122.07533539 19.52703941 -130 23 C-130 23.66 -130 24.32 -130 25 C-130.86238281 25.09925781 -131.72476563 25.19851562 -132.61328125 25.30078125 C-142.62244453 27.36726363 -151.83391735 35.13856139 -159.9375 41.0625 C-160.72987061 41.63959717 -161.52224121 42.21669434 -162.33862305 42.8112793 C-166.78257406 46.12232057 -170.78077867 49.58838959 -174.59204102 53.61499023 C-176 55 -176 55 -178 56 C-178 56.66 -178 57.32 -178 58 C-178.59683594 58.26296875 -179.19367188 58.5259375 -179.80859375 58.796875 C-183.74706015 60.95917028 -186.18581014 64.56159058 -189 68 C-189.4120166 68.49580566 -189.8240332 68.99161133 -190.24853516 69.50244141 C-197.42522183 78.17175278 -203.58522736 87.13352683 -209 97 C-209.51989502 97.94697754 -209.51989502 97.94697754 -210.05029297 98.91308594 C-218.75109682 115.00691663 -224.89038191 131.95743953 -228 150 C-228.17660156 151.01054443 -228.35320312 152.02108887 -228.53515625 153.06225586 C-230.02605335 162.39167759 -230.39814837 171.51521469 -230.375 180.9375 C-230.37512085 181.69880219 -230.3752417 182.46010437 -230.37536621 183.24447632 C-230.34558407 196.48939196 -229.10586459 209.0912503 -226 222 C-225.71125 223.26714844 -225.4225 224.53429687 -225.125 225.83984375 C-219.9455637 246.02577181 -209.88696179 267.59841227 -197 284 C-196.32976807 284.8667334 -196.32976807 284.8667334 -195.64599609 285.75097656 C-181.19281751 304.37037388 -165.46985403 318.7114649 -145.3359375 330.96875 C-143.19788234 332.27061028 -141.08280655 333.6114623 -139 335 C-137.68 335 -136.36 335 -135 335 C-135 335.66 -135 336.32 -135 337 C-134.3709375 337.24234375 -133.741875 337.4846875 -133.09375 337.734375 C-129.09390152 339.30058073 -125.19147465 340.8424572 -121.4375 342.9375 C-109.35184886 349.06475627 -95.48668511 351.05049337 -82.19873047 352.71801758 C-80.26480734 352.96603903 -78.33673441 353.25881064 -76.41015625 353.55859375 C-69.64998293 354.385275 -62.8017776 354.28983762 -56 354.3125 C-55.24999725 354.31511841 -54.49999451 354.31773682 -53.7272644 354.32043457 C-36.07070245 354.32701171 -19.56142939 352.3490757 -3 346 C-1.23058007 345.37100968 0.54009048 344.74551608 2.3125 344.125 C44.71017448 328.58721589 79.90633954 297.88487889 99.26171875 256.796875 C99.84305416 255.53212541 100.4225371 254.2665224 101 253 C101.54269531 251.82953125 102.08539063 250.6590625 102.64453125 249.453125 C117.51959094 216.163118 121.9775478 174.39563535 112 139 C111.70448242 137.94844727 111.40896484 136.89689453 111.10449219 135.81347656 C103.61230023 110.01691851 91.88068754 85.88342107 73.19140625 66.33203125 C71 64 71 64 68.94921875 61.41015625 C67.16845781 59.20829352 65.40419417 57.44983391 63.25 55.625 C59.0859375 52.07868304 59.0859375 52.07868304 57.1953125 50.34765625 C48.35025778 42.2808145 38.38989599 35.66811933 28.125 29.5625 C27.43607666 29.14959717 26.74715332 28.73669434 26.03735352 28.3112793 C21.48292042 25.65795083 16.96950899 23.75637532 12 22 C10.58126487 21.40070671 9.16429207 20.79720465 7.75 20.1875 C-4.26462652 15.38908879 -16.95701157 11.05302028 -30 11 C-30 10.34 -30 9.68 -30 9 C-35.07945422 7.98982903 -39.99114522 7.793147 -45.1484375 7.7265625 C-46.47047935 7.70770241 -46.47047935 7.70770241 -47.81922913 7.6884613 C-66.71804766 7.47115482 -84.79189638 7.28799173 -103 13 Z " fill="#090909" transform="translate(304,61)"/>
<path d="M0 0 C3.97803258 2.47283106 7.2157692 6.24403839 9.3125 10.4375 C10.05894775 10.43083817 10.80539551 10.42417633 11.57446289 10.41731262 C18.63569005 10.35700815 25.69682684 10.31142785 32.75823975 10.28206348 C36.38792985 10.26645901 40.01740578 10.24531743 43.64697266 10.21118164 C47.15479617 10.17840021 50.66241468 10.16060781 54.17037964 10.15286827 C56.1488929 10.14469082 58.12732458 10.12130176 60.10571289 10.09761047 C66.95569773 10.0963389 72.07626666 10.57938005 78.3125 13.4375 C81.1971135 13.98626903 81.1971135 13.98626903 83.8125 14.125 C84.6684375 14.19074219 85.524375 14.25648438 86.40625 14.32421875 C87.34984375 14.38029297 87.34984375 14.38029297 88.3125 14.4375 C88.3125 13.7775 88.3125 13.1175 88.3125 12.4375 C89.17875 12.1075 90.045 11.7775 90.9375 11.4375 C94.75463014 9.17549695 96.52815825 6.86812237 99.015625 3.27734375 C100.3125 1.4375 100.3125 1.4375 102.3125 -0.5625 C108.06811958 -1.38625968 112.7847316 -0.58978983 118.03125 1.7109375 C122.06482983 2.99560505 126.25110502 2.96619164 130.45703125 3.12890625 C133.3125 3.4375 133.3125 3.4375 136.3125 5.4375 C138.21915186 5.78872534 140.13858957 6.07323195 142.0625 6.3125 C146.53361904 6.99091352 149.53419411 7.91040635 153.3515625 10.43359375 C156.98069786 12.29153755 161.03992423 12.81372096 165.00390625 13.65234375 C169.61509452 14.74661629 174.11095933 16.2200202 178.3125 18.4375 C179.8375464 21.4875928 179.8190631 24.13908344 179.3125 27.4375 C177.92852003 31.5715436 176.14949233 35.48723944 174.3125 39.4375 C173.62607422 40.96697266 173.62607422 40.96697266 172.92578125 42.52734375 C168.33933329 52.29082338 162.43485667 59.88015458 154.19140625 66.80078125 C148.43967035 71.81112915 144.7678242 77.6950311 141.3125 84.4375 C135.5625 83.5625 135.5625 83.5625 133.3125 82.4375 C133.32297363 83.49549805 133.33344727 84.55349609 133.34423828 85.64355469 C133.3808438 89.62447636 133.40354573 93.60538363 133.42236328 97.58642578 C133.43232955 99.29901646 133.44590747 101.01159054 133.46337891 102.72412109 C133.72372041 128.92672726 133.72372041 128.92672726 128.8125 135.1875 C126.3125 137.4375 126.3125 137.4375 124.3125 137.4375 C124.085625 137.994375 123.85875 138.55125 123.625 139.125 C121.95082737 142.07473273 119.73417689 144.0748884 117.3125 146.4375 C113.97707635 150.16160445 112.50757498 154.56155901 110.8125 159.1875 C110.50062744 160.03296387 110.18875488 160.87842773 109.86743164 161.74951172 C107.54086368 168.28696528 106.23716883 174.59465552 105.11328125 181.44140625 C104.29433732 185.93271432 102.93232284 190.1924697 101.4375 194.5 C101.08836548 195.53568115 101.08836548 195.53568115 100.73217773 196.59228516 C98.95484295 201.51275295 96.49620367 205.28789301 93.3125 209.4375 C86.28297248 208.9839821 80.7275557 207.31690913 74.3125 204.4375 C74.3125 203.7775 74.3125 203.1175 74.3125 202.4375 C72.6625 202.1075 71.0125 201.7775 69.3125 201.4375 C69.10625 202.05625 68.9 202.675 68.6875 203.3125 C66.72332808 206.34803843 64.76069159 206.51710083 61.3125 207.4375 C58.21630859 207.69628906 58.21630859 207.69628906 54.9609375 207.703125 C53.78015625 207.70570313 52.599375 207.70828125 51.3828125 207.7109375 C50.16335937 207.70320312 48.94390625 207.69546875 47.6875 207.6875 C46.4603125 207.69523438 45.233125 207.70296875 43.96875 207.7109375 C42.79054688 207.70835937 41.61234375 207.70578125 40.3984375 207.703125 C38.7904126 207.69974121 38.7904126 207.69974121 37.14990234 207.69628906 C34.28857735 207.4353181 32.6825618 207.0281544 30.3125 205.4375 C29.6525 204.4475 28.9925 203.4575 28.3125 202.4375 C25.72869823 202.18719023 25.72869823 202.18719023 23.3125 202.4375 C22.9825 203.4275 22.6525 204.4175 22.3125 205.4375 C17.50949434 207.03850189 13.26529656 207.82752192 8.3125 206.4375 C3.06969432 201.19469432 -0.18633415 194.67039002 -1.6875 187.4375 C-2.1329335 186.12056618 -2.59273609 184.80845235 -3.0625 183.5 C-4.47640778 179.30112234 -5.61010666 175.04529648 -6.6875 170.75 C-6.86095947 170.06357422 -7.03441895 169.37714844 -7.21313477 168.66992188 C-8.33415494 164.13717016 -9.18854757 159.59988986 -10 155 C-11.18885203 149.22651417 -13.17738682 145.70779484 -17.05859375 141.32421875 C-18.6875 139.4375 -18.6875 139.4375 -20.25 136.25 C-21.83801642 133.14301136 -23.60418318 131.48964949 -26.28515625 129.3203125 C-30.23497258 124.01721648 -29.96550121 116.67133174 -29.8828125 110.34375 C-29.8799826 109.51161987 -29.87715271 108.67948975 -29.87423706 107.82214355 C-29.86314286 105.19377569 -29.83805925 102.5657629 -29.8125 99.9375 C-29.80245626 98.14323413 -29.79333286 96.34896285 -29.78515625 94.5546875 C-29.76323893 90.18215721 -29.7287849 85.80988857 -29.6875 81.4375 C-30.3475 81.4375 -31.0075 81.4375 -31.6875 81.4375 C-32.1825 82.9225 -32.1825 82.9225 -32.6875 84.4375 C-38.21663199 84.8061088 -38.21663199 84.8061088 -40.234375 83.2265625 C-41.92949665 81.13955788 -42.98459222 79.05911627 -44.125 76.625 C-47.3961623 69.30752193 -47.3961623 69.30752193 -53.125 64.0625 C-59.90035272 59.76593486 -62.41423923 50.64034024 -65 43.4375 C-65.35900391 42.49132812 -65.71800781 41.54515625 -66.08789062 40.5703125 C-68.12793538 34.95921797 -69.3388457 30.41145859 -68.6875 24.4375 C-65.98646159 18.74894941 -60.41833183 15.51571374 -54.6875 13.4375 C-50.15046195 12.09737844 -45.70883259 11.41803266 -41 11.0625 C-36.65363854 10.64139924 -34.24074718 9.00793413 -30.6875 6.4375 C-28.79031366 5.66576318 -26.88903135 4.89916923 -24.953125 4.23046875 C-23.30151736 3.65240608 -21.66773597 3.02265517 -20.046875 2.36328125 C-13.05530253 -0.41967707 -7.40792173 -1.55049525 0 0 Z M-8.6875 4.4375 C-8.6875 5.0975 -8.6875 5.7575 -8.6875 6.4375 C-7.73875 6.6025 -6.79 6.7675 -5.8125 6.9375 C-2.6875 8.4375 -2.6875 8.4375 -1.84375 10.3515625 C-1.36131375 12.35934864 -1.01630438 14.39891284 -0.6875 16.4375 C-5.39460059 14.78365385 -5.39460059 14.78365385 -7.0625 12.8125 C-9.68858083 10.59043161 -12.39400817 11.25107593 -15.6875 11.4375 C-20.84717192 20.14444636 -20.06797658 28.64022795 -19.6875 38.4375 C-17.4375 37.5625 -17.4375 37.5625 -16.4375 34.9375 C-15.86 33.7825 -15.2825 32.6275 -14.6875 31.4375 C-14.32269531 30.65761719 -13.95789063 29.87773437 -13.58203125 29.07421875 C-12.14050477 26.42367007 -10.91788241 24.48309158 -8.6875 22.4375 C-4.65097192 21.38583751 -0.84191682 21.26944107 3.3125 21.4375 C2.9825 22.7575 2.6525 24.0775 2.3125 25.4375 C0.5490625 25.6540625 0.5490625 25.6540625 -1.25 25.875 C-7.04183719 27.31269008 -9.69462381 31.54514505 -12.6875 36.4375 C-13.30800565 37.75394532 -13.89747751 39.08604476 -14.4375 40.4375 C-14.85 41.4275 -15.2625 42.4175 -15.6875 43.4375 C-17.1725 43.9325 -17.1725 43.9325 -18.6875 44.4375 C-19.55948202 46.62493042 -19.55948202 46.62493042 -20.0390625 49.3203125 C-20.25046875 50.32320312 -20.461875 51.32609375 -20.6796875 52.359375 C-20.99292969 53.94492188 -20.99292969 53.94492188 -21.3125 55.5625 C-21.5290625 56.59632813 -21.745625 57.63015625 -21.96875 58.6953125 C-23.7360247 67.24804931 -24.84811659 75.44307331 -24.890625 84.17578125 C-24.89632507 85.09658981 -24.90202515 86.01739838 -24.90789795 86.96611023 C-24.91730436 88.90667589 -24.92386449 90.8472572 -24.92773438 92.7878418 C-24.93743602 95.73059397 -24.96849951 98.67264578 -25 101.61523438 C-25.00653195 103.51041257 -25.01178167 105.4055957 -25.015625 107.30078125 C-25.0279718 108.16778152 -25.0403186 109.0347818 -25.05303955 109.92805481 C-25.03109176 116.05321796 -24.17949658 121.79145315 -21.6875 127.4375 C-19.20138577 129.73651198 -19.20138577 129.73651198 -17.3671875 130.96875 C-14.32101726 133.63237793 -12.47868957 137.18818951 -10.3984375 140.62109375 C-8.72071424 143.49793918 -8.72071424 143.49793918 -6.56640625 146.19921875 C-4.13352975 150.39226369 -3.76110226 154.05345859 -3.25 158.8125 C-2.05275772 168.12894208 0.14120773 176.61303457 3.3125 185.4375 C3.66570312 186.4275 4.01890625 187.4175 4.3828125 188.4375 C6.16983387 193.16536756 7.92216079 197.64829735 11.3125 201.4375 C14.48176564 201.93919415 14.48176564 201.93919415 17.3125 201.4375 C17.6425 200.7775 17.9725 200.1175 18.3125 199.4375 C19.92874466 198.54813786 21.58080891 197.72300169 23.25 196.9375 C27.0876351 195.13138758 27.0876351 195.13138758 30.3125 192.4375 C32.4375 191.8125 32.4375 191.8125 34.3125 191.4375 C34.3125 190.7775 34.3125 190.1175 34.3125 189.4375 C35.1478125 189.0353125 35.1478125 189.0353125 36 188.625 C39.58850651 186.78225342 42.95739054 184.67423964 46.3125 182.4375 C51.21036995 181.9073182 53.31097572 181.84351722 57.5859375 184.37890625 C58.63485661 185.2344594 59.66845459 186.10907411 60.6875 187 C61.8125841 187.92076111 62.93889849 188.84002086 64.06640625 189.7578125 C64.61441895 190.21317383 65.16243164 190.66853516 65.72705078 191.13769531 C71.83802033 196.14767405 77.73643129 200.126157 85.3125 202.4375 C86.7046875 202.870625 86.7046875 202.870625 88.125 203.3125 C90.30965361 203.6602494 90.30965361 203.6602494 91.796875 202.42578125 C94.02247358 199.50611713 94.79634649 196.23805759 95.75 192.75 C95.96462891 191.99468994 96.17925781 191.23937988 96.40039062 190.46118164 C97.80568841 185.45663265 99.08104631 180.42465162 100.3125 175.375 C101.67372826 169.8103653 103.15567955 164.29690604 104.8125 158.8125 C105.00199219 158.16144287 105.19148437 157.51038574 105.38671875 156.83959961 C107.29121312 150.69233275 110.77067273 146.01096447 114.6875 141 C115.28691406 140.22914063 115.88632812 139.45828125 116.50390625 138.6640625 C118.56271892 136.12945511 120.75479214 133.75474438 123.05078125 131.43359375 C126.93652207 125.28618335 126.6077142 117.69716371 126.578125 110.69140625 C126.58099518 109.17558205 126.58099518 109.17558205 126.58392334 107.62913513 C126.58527814 105.50202178 126.58163119 103.37489997 126.57324219 101.24780273 C126.56254405 98.01331779 126.57315596 94.77938961 126.5859375 91.54492188 C126.58461556 89.46874879 126.58205246 87.39257604 126.578125 85.31640625 C126.58419769 83.88162682 126.58419769 83.88162682 126.59039307 82.41786194 C126.55438266 77.19436801 126.04741547 72.47846613 124.7890625 67.40840149 C122.53930174 58.10415108 123.29011 48.10849343 123.4375 38.625 C123.78043165 23.27434718 123.78043165 23.27434718 120.3125 8.4375 C117.49740007 6.1601499 117.49740007 6.1601499 114.3125 6.4375 C112.65214729 8.38121957 111.31954047 10.45885481 109.91015625 12.58984375 C108.0876094 14.69758131 107.02722449 15.06810984 104.3125 15.4375 C104.621875 14.53 104.93125 13.6225 105.25 12.6875 C106.0397263 10.27186662 106.74199297 7.90969715 107.3125 5.4375 C103.87112373 5.99516438 102.64944402 6.89097072 100.625 9.6875 C96.60081189 14.55466018 92.09769438 17.94525499 85.69921875 18.77734375 C82.54738536 18.81657819 79.45800233 18.64881679 76.3125 18.4375 C74.73450873 18.36549654 73.15636909 18.29669976 71.578125 18.23046875 C58.51085858 17.63585858 58.51085858 17.63585858 57.3125 16.4375 C55.74702952 16.34423284 54.17737228 16.32004418 52.60913086 16.32397461 C51.10768776 16.32408791 51.10768776 16.32408791 49.57591248 16.32420349 C48.4873848 16.32936478 47.39885712 16.33452606 46.27734375 16.33984375 C44.6147628 16.34196617 44.6147628 16.34196617 42.91859436 16.34413147 C39.36236931 16.34974967 35.80620617 16.36230525 32.25 16.375 C29.84570403 16.38001266 27.44140708 16.38457597 25.03710938 16.38867188 C19.12888496 16.39972501 13.2206969 16.41648083 7.3125 16.4375 C7.3125 15.7775 7.3125 15.1175 7.3125 14.4375 C6.57 14.025 5.8275 13.6125 5.0625 13.1875 C2.3125 11.4375 2.3125 11.4375 0.4375 8.3125 C-1.48871205 5.05678336 -1.48871205 5.05678336 -5.4375 4.5625 C-7.04625 4.500625 -7.04625 4.500625 -8.6875 4.4375 Z " fill="#121212" transform="translate(197.6875,160.5625)"/>
<path d="M0 0 C5.5621732 -0.34054122 8.96109261 0.75048777 14 3 C16.32189536 3.4054103 18.65515344 3.76072994 21 4 C21 4.66 21 5.32 21 6 C21.66386719 6.03738281 22.32773437 6.07476562 23.01171875 6.11328125 C32.95508754 6.85359046 32.95508754 6.85359046 36 10 C37.30609145 19.30590157 33.39967864 30.42821268 28 38 C25.91015625 38.66796875 25.91015625 38.66796875 24 39 C22.78309467 40.76529595 22.78309467 40.76529595 22 43 C21.443125 44.36125 21.443125 44.36125 20.875 45.75 C20.441875 46.86375 20.441875 46.86375 20 48 C24.26866909 47.52570343 26.10933148 44.96478822 29 42 C30.485 41.505 30.485 41.505 32 41 C33.12069085 38.77513115 33.12069085 38.77513115 34 36 C34.4021875 34.95585937 34.804375 33.91171875 35.21875 32.8359375 C37.89687174 25.60174279 39.95413879 18.64883568 41 11 C42.32 11.33 43.64 11.66 45 12 C45.75502197 22.45285968 40.47103218 34.54712988 33.97851562 42.56689453 C29.83796204 47.30568672 25.32328751 51.64953553 20.79296875 56.01171875 C17.56173609 59.59493753 15.28674729 63.77298229 13 68 C10.75 67.875 10.75 67.875 8 67 C4.24108116 62.66379519 3.37812861 58.94078473 2.8125 53.3125 C2.29143697 48.07231216 2.29143697 48.07231216 1 43 C0.92792237 40.86830396 0.91613929 38.73436978 0.9375 36.6015625 C0.94523437 35.31636719 0.95296875 34.03117187 0.9609375 32.70703125 C0.97333404 31.34634834 0.98635756 29.98567099 1 28.625 C1.09462504 19.02055839 0.91202233 9.56605567 0 0 Z " fill="#DFDFDF" transform="translate(324,170)"/>
<path d="M0 0 C0 0.66 0 1.32 0 2 C1.36125 2.12375 1.36125 2.12375 2.75 2.25 C6.53688242 3.12389594 7.7614704 3.84947686 10 7 C10.75 10.0625 10.75 10.0625 11 14 C11.06316406 14.89847656 11.12632812 15.79695313 11.19140625 16.72265625 C11.50324657 24.1967646 11.50324657 24.1967646 9.39453125 27.5625 C4.46286246 32.58266529 -2.76804336 37.35613384 -9.82421875 38.4296875 C-16.85458005 37.9220005 -23.51133518 35.15684284 -28.8125 30.5625 C-29.534375 29.716875 -30.25625 28.87125 -31 28 C-31.7425 27.13375 -32.485 26.2675 -33.25 25.375 C-36.30662287 21.22672611 -36.65453253 17.00372892 -36 12 C-33.36211031 4.36211031 -33.36211031 4.36211031 -31 2 C-27.5 1.5 -27.5 1.5 -24 1 C-23.67 0.67 -23.34 0.34 -23 0 C-6.43894009 -2.14631336 -6.43894009 -2.14631336 0 0 Z " fill="#111111" transform="translate(261,286)"/>
<path d="M0 0 C-0.20496094 0.556875 -0.40992188 1.11375 -0.62109375 1.6875 C-0.89050781 2.450625 -1.15992188 3.21375 -1.4375 4 C-1.70433594 4.7425 -1.97117188 5.485 -2.24609375 6.25 C-4.25269013 13.56939818 -4.02538186 20.7333723 -3.875 28.25 C-3.79844832 36.61525044 -4.15628422 44.04969672 -7 52 C-7.31324219 52.96035156 -7.62648437 53.92070312 -7.94921875 54.91015625 C-9.79225176 60.32269984 -11.98063542 65.14744978 -15 70 C-17.71418746 65.9287188 -19.82393434 61.58017332 -22.05078125 57.2265625 C-24.61555345 52.98106784 -27.51627355 50.00911141 -31.61328125 47.22265625 C-34.97712685 44.09004063 -35.88093117 40.76609514 -37.1875 36.4375 C-37.43943115 35.63626709 -37.6913623 34.83503418 -37.95092773 34.00952148 C-42.1404125 20.36930658 -42.1404125 20.36930658 -42 16 C-40.52734375 14.21484375 -40.52734375 14.21484375 -39 13 C-38.01 13.33 -37.02 13.66 -36 14 C-36.06960937 14.59683594 -36.13921875 15.19367188 -36.2109375 15.80859375 C-36.84038884 25.89480219 -33.31716171 38.88475447 -27 47 C-25.68 47 -24.36 47 -23 47 C-22.72600198 42.95492391 -23.44086671 40.60095772 -25.375 37.0625 C-29.4869249 29.17645706 -31.10732681 22.90387588 -29.125 14.125 C-28 11 -28 11 -26 9 C-20.83568093 7.05873618 -15.46844635 5.71953241 -10 5 C-10 4.34 -10 3.68 -10 3 C-6.27034861 0.96564469 -4.33094958 0 0 0 Z " fill="#DFDFDF" transform="translate(177,170)"/>
<path d="M0 0 C0.91201172 -0.00257813 1.82402344 -0.00515625 2.76367188 -0.0078125 C3.70919922 -0.00007813 4.65472656 0.00765625 5.62890625 0.015625 C6.57056641 0.00789063 7.51222656 0.00015625 8.48242188 -0.0078125 C17.61364159 0.0179637 17.61364159 0.0179637 21.19140625 2.265625 C24.07789553 6.27964916 24.20350406 11.11329228 24.16015625 15.9140625 C22.5044313 21.64233671 18.04726041 23.95188995 13.03515625 26.75390625 C8.90221836 28.64941603 5.70616662 28.7513318 1.19140625 28.265625 C-1.33984375 27.0234375 -1.33984375 27.0234375 -3.30859375 25.390625 C-3.97890625 24.85695313 -4.64921875 24.32328125 -5.33984375 23.7734375 C-6.80859375 22.265625 -6.80859375 22.265625 -6.80859375 20.265625 C-5.35453125 19.8015625 -5.35453125 19.8015625 -3.87109375 19.328125 C-0.96793583 18.57039158 -0.96793583 18.57039158 0.19140625 17.265625 C0.23221408 15.26604136 0.23394981 13.26517246 0.19140625 11.265625 C-2.44859375 10.275625 -5.08859375 9.285625 -7.80859375 8.265625 C-8.46859375 11.565625 -9.12859375 14.865625 -9.80859375 18.265625 C-10.79859375 17.605625 -11.78859375 16.945625 -12.80859375 16.265625 C-12.18477423 6.39206781 -12.18477423 6.39206781 -8.80859375 2.265625 C-5.79924799 0.41108972 -3.50951444 0.00957296 0 0 Z " fill="#D2D2D2" transform="translate(243.80859375,290.734375)"/>
<path d="M0 0 C1.65 0.33 3.3 0.66 5 1 C5.48720213 2.35129647 5.96428184 3.70624316 6.4375 5.0625 C6.70433594 5.81660156 6.97117187 6.57070312 7.24609375 7.34765625 C8.93580692 13.2922948 9.16382965 19.18365598 9.125 25.3125 C9.12306641 26.05363037 9.12113281 26.79476074 9.11914062 27.55834961 C9.07568452 33.09236448 8.69762498 38.50620332 8 44 C7.67 44 7.34 44 7 44 C7 42.02 7 40.04 7 38 C5.8553125 38.1546875 5.8553125 38.1546875 4.6875 38.3125 C2 38 2 38 0.4375 36.125 C-1 33 -1 33 -1.75390625 30.7578125 C-4.02353801 24.22371567 -6.98560125 20.58294839 -12.26953125 16.10546875 C-14 14 -14 14 -13.76171875 11.23828125 C-13.51035156 10.49964844 -13.25898438 9.76101562 -13 9 C-11.96875 9 -10.9375 9 -9.875 9 C-7.12245391 8.64682199 -6.16715081 8.1715018 -4.19921875 6.15234375 C-2.71523275 4.14418131 -1.31840746 2.12007646 0 0 Z " fill="#D9D9D9" transform="translate(312,167)"/>
<path d="M0 0 C3.1875 0.0625 3.1875 0.0625 7 1 C8.54706105 2.67318016 9.66950692 4.40842509 10.8671875 6.34375 C12.26344471 8.38517434 13.6661819 9.22206063 16 10 C16 10.66 16 11.32 16 12 C25.57 12.33 35.14 12.66 45 13 C45 13.33 45 13.66 45 14 C40.58338849 14.05804281 36.16687504 14.09361104 31.75 14.125 C30.49574219 14.14175781 29.24148437 14.15851563 27.94921875 14.17578125 C26.74394531 14.18222656 25.53867188 14.18867188 24.296875 14.1953125 C22.63156738 14.21102295 22.63156738 14.21102295 20.93261719 14.22705078 C18.06049058 14.00468334 16.42776265 13.49281575 14 12 C12.95994298 15.38018531 12.91995518 18.4780279 13 22 C12.34 21.67 11.68 21.34 11 21 C11.33 19.68 11.66 18.36 12 17 C7.81425572 16.76631313 4.05553337 16.87965891 0 18 C-3.14869981 20.91364062 -5.04464048 24.2093469 -7 28 C-7.35835937 28.65871094 -7.71671875 29.31742188 -8.0859375 29.99609375 C-8.7712846 31.30705585 -9.39590494 32.64966988 -10 34 C-10.33 34 -10.66 34 -11 34 C-11.738041 14.99544419 -11.738041 14.99544419 -7 7 C-3.75 6.75 -3.75 6.75 0 7 C2.1875 8.9375 2.1875 8.9375 4 11 C6.05987468 11.64939772 6.05987468 11.64939772 8 12 C7.35493804 7.87561925 7.35493804 7.87561925 6 4 C3.00571856 2.38852558 3.00571856 2.38852558 0 2 C0 1.34 0 0.68 0 0 Z " fill="#C9C9C9" transform="translate(189,165)"/>
<path d="M0 0 C0.91201172 -0.00257813 1.82402344 -0.00515625 2.76367188 -0.0078125 C3.70919922 -0.00007813 4.65472656 0.00765625 5.62890625 0.015625 C6.57056641 0.00789063 7.51222656 0.00015625 8.48242188 -0.0078125 C13.12872192 0.00530338 16.9914225 0.01849994 21.19140625 2.265625 C20.37890625 4.203125 20.37890625 4.203125 19.19140625 6.265625 C16.16573442 7.27418228 13.39524305 7.55705891 10.2265625 7.7890625 C7.40517911 8.44973193 6.14297106 9.08039168 4.19140625 11.265625 C3.89579549 14.13600552 3.81197609 16.60317245 3.94140625 19.453125 C3.96847656 20.57750977 3.96847656 20.57750977 3.99609375 21.72460938 C4.04316516 23.5721621 4.11490859 25.41905659 4.19140625 27.265625 C-3.87488573 25.0819847 -3.87488573 25.0819847 -6.80859375 22.265625 C-6.80859375 21.605625 -6.80859375 20.945625 -6.80859375 20.265625 C-5.35453125 19.8015625 -5.35453125 19.8015625 -3.87109375 19.328125 C-0.96793583 18.57039158 -0.96793583 18.57039158 0.19140625 17.265625 C0.23221408 15.26604136 0.23394981 13.26517246 0.19140625 11.265625 C-2.44859375 10.275625 -5.08859375 9.285625 -7.80859375 8.265625 C-8.46859375 11.565625 -9.12859375 14.865625 -9.80859375 18.265625 C-10.79859375 17.605625 -11.78859375 16.945625 -12.80859375 16.265625 C-12.18477423 6.39206781 -12.18477423 6.39206781 -8.80859375 2.265625 C-5.79924799 0.41108972 -3.50951444 0.00957296 0 0 Z " fill="#D8D8D8" transform="translate(243.80859375,290.734375)"/>
<path d="M0 0 C1.30517578 1.09634766 1.30517578 1.09634766 2.63671875 2.21484375 C3.51972656 2.94832031 4.40273438 3.68179687 5.3125 4.4375 C6.30830078 5.28634766 6.30830078 5.28634766 7.32421875 6.15234375 C6.66421875 7.47234375 6.00421875 8.79234375 5.32421875 10.15234375 C4.66421875 10.15234375 4.00421875 10.15234375 3.32421875 10.15234375 C3.32421875 10.81234375 3.32421875 11.47234375 3.32421875 12.15234375 C-2.03673458 13.2809655 -7.22884811 13.24922596 -12.67578125 13.15234375 C-12.67578125 12.49234375 -12.67578125 11.83234375 -12.67578125 11.15234375 C-13.74828125 11.19359375 -14.82078125 11.23484375 -15.92578125 11.27734375 C-19.3332561 11.16376125 -20.88317756 10.93961011 -23.67578125 9.15234375 C-23.453125 7.31640625 -23.453125 7.31640625 -22.67578125 5.15234375 C-20.6796875 3.73828125 -20.6796875 3.73828125 -18.23828125 2.52734375 C-15.59749447 1.1963533 -13.77869863 0.25526113 -11.67578125 -1.84765625 C-7.22378792 -3.53634338 -3.85748807 -2.66363774 0 0 Z " fill="#D5D5D5" transform="translate(254.67578125,350.84765625)"/>
<path d="M0 0 C4.77473608 0.42130024 7.79830934 2.58545456 11 6 C14.37878821 11.06818231 19.67335166 19.07322645 18.60546875 25.30078125 C18.40566406 25.86152344 18.20585937 26.42226562 18 27 C15.640625 26.875 15.640625 26.875 13 26 C11.734375 23.375 11.734375 23.375 10.75 20 C8.58660232 13.6424023 5.8028155 10.18049337 0.6953125 5.90234375 C0.13585937 5.27457031 -0.42359375 4.64679688 -1 4 C-0.7578125 1.75390625 -0.7578125 1.75390625 0 0 Z " fill="#171717" transform="translate(299,177)"/>
<path d="M0 0 C0.99 0.33 1.98 0.66 3 1 C2.93039063 1.59683594 2.86078125 2.19367188 2.7890625 2.80859375 C2.15961116 12.89480219 5.68283829 25.88475447 12 34 C13.32 34 14.64 34 16 34 C16.66 32.68 17.32 31.36 18 30 C18 31.65 18 33.3 18 35 C14.875 36.3125 14.875 36.3125 11 37 C5.32620753 33.41923894 3.60293539 29.6715672 1.75 23.375 C1.50258057 22.57827881 1.25516113 21.78155762 1.00024414 20.96069336 C-3.13853493 7.31088106 -3.13853493 7.31088106 -3 3 C-1.52734375 1.21484375 -1.52734375 1.21484375 0 0 Z " fill="#D3D3D3" transform="translate(138,183)"/>
<path d="M0 0 C1.32 0.33 2.64 0.66 4 1 C4.43593234 6.63079274 2.92787186 11.05393122 1 16.25 C0.68893311 17.09030762 0.37786621 17.93061523 0.05737305 18.79638672 C-2.51366325 25.39667807 -5.50973773 31.31346685 -11 36 C-13.06640625 36.70703125 -13.06640625 36.70703125 -15 37 C-15.9075 37.185625 -16.815 37.37125 -17.75 37.5625 C-18.4925 37.706875 -19.235 37.85125 -20 38 C-14.35475578 32.19794344 -14.35475578 32.19794344 -11 30 C-10.34 30 -9.68 30 -9 30 C-5.02076409 20.16244456 -1.44356188 10.55739284 0 0 Z " fill="#D5D5D5" transform="translate(365,181)"/>
<path d="M0 0 C1.45922693 0.11409593 2.91740598 0.24165544 4.375 0.375 C5.59316406 0.47941406 5.59316406 0.47941406 6.8359375 0.5859375 C9 1 9 1 11 3 C11.32618658 6.06615383 11.42932497 8.16818287 10 10.9375 C6.77297719 12.65185587 3.44481224 11.97273891 0 11 C-2 9 -2 9 -2.25 6.0625 C-2 3 -2 3 0 0 Z " fill="#212121" transform="translate(255,298)"/>
<path d="M0 0 C6.75 0.75 6.75 0.75 9 3 C9.32378803 6.04360748 9.51045744 8.12921967 7.9375 10.8125 C5.09072753 12.55729603 2.28153235 12.69042148 -1 13 C-3 10 -3 10 -2.75 6.5 C-2 3 -2 3 0 0 Z " fill="#0C0C0C" transform="translate(236,299)"/>
<path d="M0 0 C1.32 0 2.64 0 4 0 C4.02692484 2.29160319 4.04636124 4.58329546 4.0625 6.875 C4.07410156 8.15117187 4.08570313 9.42734375 4.09765625 10.7421875 C4 14 4 14 3 16 C1.68 15.67 0.36 15.34 -1 15 C-1.02685412 12.68756208 -1.04632841 10.3750373 -1.0625 8.0625 C-1.07410156 6.77472656 -1.08570313 5.48695313 -1.09765625 4.16015625 C-1 1 -1 1 0 0 Z " fill="#1A1A1A" transform="translate(248,301)"/>
<path d="M0 0 C1.1171875 3.71875 1.1171875 3.71875 0.0625 6.25 C-0.4634375 7.11625 -0.4634375 7.11625 -1 8 C-0.34 8.33 0.32 8.66 1 9 C-0.40413596 10.98919261 -1.82197557 12.96557284 -3.25 14.9375 C-3.64574219 15.50146484 -4.04148437 16.06542969 -4.44921875 16.64648438 C-7.47830486 20.79285634 -7.47830486 20.79285634 -10.125 21.84375 C-11.053125 21.92109375 -11.053125 21.92109375 -12 22 C-12.9075 22.185625 -13.815 22.37125 -14.75 22.5625 C-15.4925 22.706875 -16.235 22.85125 -17 23 C-11.35475578 17.19794344 -11.35475578 17.19794344 -8 15 C-7.34 15 -6.68 15 -6 15 C-5.71382813 14.28457031 -5.42765625 13.56914062 -5.1328125 12.83203125 C-3.421875 8.5546875 -1.7109375 4.27734375 0 0 Z " fill="#BDBDBD" transform="translate(362,196)"/>
<path d="M0 0 C2.35402175 3.53103262 2.35724447 5.30782862 2.4375 9.5 C2.47746094 10.6446875 2.51742188 11.789375 2.55859375 12.96875 C2 16 2 16 -0.35546875 17.94921875 C-3 19 -3 19 -5.75 18.3125 C-8 17 -8 17 -9 15 C-6.03 15 -3.06 15 0 15 C0 12.36 0 9.72 0 7 C-2.97 6.01 -5.94 5.02 -9 4 C-7.68 3.67 -6.36 3.34 -5 3 C-2.29269909 1.80384186 -2.29269909 1.80384186 0 0 Z " fill="#A9A9A9" transform="translate(265,294)"/>
<path d="M0 0 C0.99 0.33 1.98 0.66 3 1 C2.67 5.29 2.34 9.58 2 14 C1.01 14 0.02 14 -1 14 C-1.41676948 12.23397681 -1.8077738 10.46185699 -2.1875 8.6875 C-2.40792969 7.70136719 -2.62835938 6.71523437 -2.85546875 5.69921875 C-3 3 -3 3 -1.55078125 1.14453125 C-1.03902344 0.76683594 -0.52726563 0.38914063 0 0 Z " fill="#D5D5D5" transform="translate(138,183)"/>
<path d="M0 0 C1.32 0 2.64 0 4 0 C4.33 0.99 4.66 1.98 5 3 C4.34 3 3.68 3 3 3 C3 4.65 3 6.3 3 8 C1.35 8.33 -0.3 8.66 -2 9 C-2.25 3.375 -2.25 3.375 0 0 Z " fill="#030303" transform="translate(255,298)"/>
<path d="M0 0 C0.68620031 1.32338632 1.34786461 2.65949948 2 4 C2.5878125 5.0828125 2.5878125 5.0828125 3.1875 6.1875 C4.3603896 10.24750248 3.66468853 13.87713467 3 18 C1.13389074 15.20083611 0.31214617 13.18061731 -0.625 10 C-1.01558594 8.700625 -1.01558594 8.700625 -1.4140625 7.375 C-2 5 -2 5 -2 2 C-1.34 2 -0.68 2 0 2 C0 1.34 0 0.68 0 0 Z " fill="#C5C5C5" transform="translate(140,195)"/>
<path d="M0 0 C3.1875 0 3.1875 0 7 1 C9.09704436 3.45520293 10.57276992 6.11265436 12 9 C11.34 9 10.68 9 10 9 C9.01 10.485 9.01 10.485 8 12 C7.79375 10.72125 7.5875 9.4425 7.375 8.125 C6.91516467 5.92186032 6.91516467 5.92186032 6 4 C3.00571856 2.38852558 3.00571856 2.38852558 0 2 C0 1.34 0 0.68 0 0 Z " fill="#B7B7B7" transform="translate(189,165)"/>
<path d="M0 0 C0.33 0 0.66 0 1 0 C1.33 3.63 1.66 7.26 2 11 C-0.9375 10.1875 -0.9375 10.1875 -4 9 C-4.33 8.01 -4.66 7.02 -5 6 C-2.625 2.8125 -2.625 2.8125 0 0 Z " fill="#E2E2E2" transform="translate(246,307)"/>
<path d="M0 0 C0.33 0.99 0.66 1.98 1 3 C0.01 3.804375 0.01 3.804375 -1 4.625 C-3.31024799 6.89958592 -3.31024799 6.89958592 -3.25 10.25 C-3.1675 11.1575 -3.085 12.065 -3 13 C-4.65 13.33 -6.3 13.66 -8 14 C-8.33 13.34 -8.66 12.68 -9 12 C-6.03 8.04 -3.06 4.08 0 0 Z " fill="#C8C8C8" transform="translate(367,209)"/>
<path d="M0 0 C1.24546405 2.49092811 0.7767578 3.41080733 0 6 C0.66 6.33 1.32 6.66 2 7 C1.67 7.33 1.34 7.66 1 8 C0.63239269 10.32817964 0.29758419 12.6618385 0 15 C-0.99 14.34 -1.98 13.68 -3 13 C-2.88490339 11.58249437 -2.75746342 10.16598831 -2.625 8.75 C-2.55539063 7.96109375 -2.48578125 7.1721875 -2.4140625 6.359375 C-1.98492887 3.914123 -1.21399362 2.15163097 0 0 Z " fill="#AFAFAF" transform="translate(234,294)"/>
<path d="M0 0 C1.37562854 1.28965176 2.70766393 2.62689293 4 4 C4 6 4 6 2.5 7.625 C2.005 8.07875 1.51 8.5325 1 9 C-0.9375 8.25 -0.9375 8.25 -3 7 C-3.75 4.875 -3.75 4.875 -4 3 C-3.01 3.33 -2.02 3.66 -1 4 C-0.67 2.68 -0.34 1.36 0 0 Z " fill="#191919" transform="translate(202,165)"/>
<path d="M0 0 C0.33 0 0.66 0 1 0 C1.32617707 4.1587576 1.47166945 6.31531854 -0.9375 9.8125 C-1.618125 10.534375 -2.29875 11.25625 -3 12 C-3.33 12.66 -3.66 13.32 -4 14 C-6 12.625 -6 12.625 -8 11 C-8 10.34 -8 9.68 -8 9 C-7.05125 8.814375 -6.1025 8.62875 -5.125 8.4375 C-1.61628301 7.26599195 -1.61628301 7.26599195 -0.625 3.375 C-0.41875 2.26125 -0.2125 1.1475 0 0 Z " fill="#B8B8B8" transform="translate(245,302)"/>
<path d="M0 0 C0.33 1.32 0.66 2.64 1 4 C-0.26257233 5.17560179 -1.53537084 6.34022865 -2.8125 7.5 C-3.52019531 8.1496875 -4.22789062 8.799375 -4.95703125 9.46875 C-7 11 -7 11 -10 11 C-6.7 7.37 -3.4 3.74 0 0 Z " fill="#2D2D2D" transform="translate(379,354)"/>
<path d="M0 0 C0 3.63053243 -1.2278255 4.95750337 -3.5546875 7.63671875 C-5.49136818 9.46347972 -7.46012234 10.27432067 -10 11 C-6.79239749 7.19364503 -3.59253891 3.45436433 0 0 Z " fill="#B5B5B5" transform="translate(324,297)"/>
<path d="M0 0 C0.66 0 1.32 0 2 0 C2.0825 0.61875 2.165 1.2375 2.25 1.875 C2.81258459 4.18437567 2.81258459 4.18437567 5.0625 5.25 C5.701875 5.4975 6.34125 5.745 7 6 C7 7.98 7 9.96 7 12 C3.6497537 8.18765077 1.83025211 4.66714289 0 0 Z " fill="#232323" transform="translate(80,330)"/>
<path d="M0 0 C0.33 0 0.66 0 1 0 C1 1.65 1 3.3 1 5 C-1.31 5.66 -3.62 6.32 -6 7 C-7.32 5.68 -8.64 4.36 -10 3 C-9.34 3 -8.68 3 -8 3 C-7.67 2.34 -7.34 1.68 -7 1 C-6.34 1.99 -5.68 2.98 -5 4 C-3.68 4 -2.36 4 -1 4 C-0.67 2.68 -0.34 1.36 0 0 Z " fill="#9A9A9A" transform="translate(155,213)"/>
<path d="M0 0 C0.68707555 2.49064888 1 4.37886292 1 7 C0.01 7 -0.98 7 -2 7 C-2.66 6.34 -3.32 5.68 -4 5 C-5.31747324 4.30251417 -6.64914193 3.63040043 -8 3 C-6.865625 2.87625 -5.73125 2.7525 -4.5625 2.625 C-3.386875 2.41875 -2.21125 2.2125 -1 2 C-0.67 1.34 -0.34 0.68 0 0 Z " fill="#9F9F9F" transform="translate(307,173)"/>
<path d="M0 0 C1 3 1 3 -0.1875 6.0625 C-1.99216457 8.9873012 -2.82880497 9.90648447 -6 11 C-4.54955729 6.89041233 -2.48889248 3.56741255 0 0 Z " fill="#B7B7B7" transform="translate(103,145)"/>
<path d="M0 0 C1.98 0 3.96 0 6 0 C5.071875 0.4021875 5.071875 0.4021875 4.125 0.8125 C1.7004767 1.95556848 1.7004767 1.95556848 0 5 C-0.66 5 -1.32 5 -2 5 C-2.33 6.32 -2.66 7.64 -3 9 C-3.33 8.34 -3.66 7.68 -4 7 C-3.22265625 5.2734375 -3.22265625 5.2734375 -2.0625 3.375 C-1.381875 2.26125 -0.70125 1.1475 0 0 Z " fill="#414141" transform="translate(230,288)"/>
<path d="M0 0 C2 1 2 1 2.625 2.5625 C3.16368951 6.06398181 3.05903219 9.45806833 3 13 C2.67 13 2.34 13 2 13 C2 11.02 2 9.04 2 7 C0.35 7 -1.3 7 -3 7 C-2.01 6.34 -1.02 5.68 0 5 C0.25030977 2.41619823 0.25030977 2.41619823 0 0 Z " fill="#A8A8A8" transform="translate(317,198)"/>
<path d="M0 0 C0.33 0 0.66 0 1 0 C1.33 2.31 1.66 4.62 2 7 C4.97 7.495 4.97 7.495 8 8 C8 8.33 8 8.66 8 9 C5.69 9.33 3.38 9.66 1 10 C-1.56687367 6.1496895 -0.83288724 4.41430237 0 0 Z " fill="#4E4E4E" transform="translate(234,302)"/>
<path d="M0 0 C0.99 0 1.98 0 3 0 C2.34 1.65 1.68 3.3 1 5 C0.34 4.67 -0.32 4.34 -1 4 C-1.33 4.66 -1.66 5.32 -2 6 C-2.66 6 -3.32 6 -4 6 C-2.84826645 3.53199953 -1.95216435 1.95216435 0 0 Z " fill="#BEBEBE" transform="translate(302,166)"/>
<path d="M0 0 C2.125 0.375 2.125 0.375 4 1 C2.71034824 2.37562854 1.37310707 3.70766393 0 5 C-0.66 5 -1.32 5 -2 5 C-2.33 5.99 -2.66 6.98 -3 8 C-2.25 2.25 -2.25 2.25 0 0 Z " fill="#B8B8B8" transform="translate(151,179)"/>
<path d="M0 0 C1.65 0.33 3.3 0.66 5 1 C-0.14285714 5.42857143 -0.14285714 5.42857143 -4 6 C-2.68 4.02 -1.36 2.04 0 0 Z " fill="#ACACAC" transform="translate(312,167)"/>
<path d="M0 0 C0.33 0.66 0.66 1.32 1 2 C1.66 2.33 2.32 2.66 3 3 C2 4 2 4 0.15234375 4.09765625 C-1.8984375 4.06510417 -3.94921875 4.03255208 -6 4 C-6.33 3.34 -6.66 2.68 -7 2 C-4.69 2 -2.38 2 0 2 C0 1.34 0 0.68 0 0 Z " fill="#8B8B8B" transform="translate(251,315)"/>
<path d="M0 0 C1.98 0.495 1.98 0.495 4 1 C4 1.99 4 2.98 4 4 C2.35 4.66 0.7 5.32 -1 6 C-1 5.01 -1 4.02 -1 3 C-0.34 2.67 0.32 2.34 1 2 C0.67 1.34 0.34 0.68 0 0 Z " fill="#292929" transform="translate(240,300)"/>
<path d="M0 0 C1.32 0.33 2.64 0.66 4 1 C3.38125 1.5775 2.7625 2.155 2.125 2.75 C0.18652947 4.80249821 -0.90014249 6.43366582 -2 9 C-2.25 3.375 -2.25 3.375 0 0 Z " fill="#353535" transform="translate(255,298)"/>
<path d="M0 0 C0.33 0 0.66 0 1 0 C0.74438677 2.3431213 0.40729228 4.67843403 0 7 C-0.99 7.495 -0.99 7.495 -2 8 C-2.6875 6.25 -2.6875 6.25 -3 4 C-1.625 1.75 -1.625 1.75 0 0 Z " fill="#CECECE" transform="translate(163,232)"/>
<path d="M0 0 C0.33 0 0.66 0 1 0 C1 3.3 1 6.6 1 10 C-1.63636364 4.72727273 -1.63636364 4.72727273 -2 2 C-1.34 1.34 -0.68 0.68 0 0 Z " fill="#E0E0E0" transform="translate(319,193)"/>
<path d="M0 0 C-1.36983503 3.16115776 -1.9890638 3.9927092 -5 6 C-5.66 5.01 -6.32 4.02 -7 3 C-2.25 0 -2.25 0 0 0 Z " fill="#D9D9D9" transform="translate(353,216)"/>
<path d="M0 0 C0.66 0.33 1.32 0.66 2 1 C1.01 3.31 0.02 5.62 -1 8 C-1.33 7.34 -1.66 6.68 -2 6 C-2.66 5.67 -3.32 5.34 -4 5 C-2.68 3.35 -1.36 1.7 0 0 Z " fill="#B3B3B3" transform="translate(192,188)"/>
<path d="M0 0 C3.3125 -0.25 3.3125 -0.25 7 0 C8.9375 2 8.9375 2 10 4 C5.78087253 3.5205537 3.20336822 2.83374881 0 0 Z " fill="#B9B9B9" transform="translate(182,172)"/>
</svg>
